<?xml version="1.0" standalone="no"?>
<!DOCTYPE svg PUBLIC "-//W3C//DTD SVG 1.1//EN" "http://www.w3.org/Graphics/SVG/1.1/DTD/svg11.dtd" >
<svg xmlns="http://www.w3.org/2000/svg">
<metadata>Generated by IcoMoon</metadata>
<defs>
<font id="icomoon" horiz-adv-x="1024">
<font-face units-per-em="1024" ascent="960" descent="-64" />
<missing-glyph horiz-adv-x="1024" />
<glyph unicode="&#x20;" horiz-adv-x="512" d="" />
<glyph unicode="&#xe600;" glyph-name="arrow-down" d="M467.712 831.232v-596.736l-182.4 182.336-62.656-62.72 289.28-289.344 289.408 289.344-62.72 62.72-182.4-182.336v596.672z" />
<glyph unicode="&#xe601;" glyph-name="arrow-up" d="M556.288 64.768v596.736l182.4-182.336 62.656 62.72-289.28 289.344-289.408-289.344 62.72-62.72 182.4 182.336v-596.672z" />
<glyph unicode="&#xe602;" glyph-name="building" d="M643.008 896c-30.784 38.72-77.696 64-131.008 64s-100.224-25.28-131.008-64h-252.992v-960h768v960h-252.992zM512 928c17.728 0 32-14.336 32-32s-14.272-32-32-32c-17.664 0-32 14.336-32 32s14.336 32 32 32zM832 0h-640v832h157.376c-3.2-12.864-5.376-26.112-5.376-40h336c0 13.888-2.112 27.136-5.248 40h157.248v-832zM304.832 381.504v352h-64v-416h542.272v64zM240.832 248h542.272v-64h-542.272v64zM240.832 128h542.272v-64h-542.272v64zM495.872 566.656l118.784-118.784 157.568 157.632-45.248 45.248-112.32-112.384-118.784 118.784-108.928-108.992-36.864 36.864-45.248-45.248 82.112-82.112z" />
<glyph unicode="&#xe603;" glyph-name="close" d="M1010.112 18.624l-68.736-68.736c-9.28-9.28-20.736-13.952-34.368-13.952-13.632 0.064-25.088 4.672-34.368 14.016l-360.576 360.576-360.704-360.512c-9.28-9.408-20.8-13.952-34.368-13.952-13.632-0.064-25.088 4.544-34.368 13.888l-68.736 68.736c-9.28 9.28-13.952 20.8-13.888 34.368 0 13.632 4.544 25.088 13.888 34.496l360.512 360.512-360.448 360.704c-9.28 9.152-13.952 20.608-13.952 34.24s4.672 25.088 13.952 34.368l68.736 68.736c9.28 9.28 20.8 13.952 34.432 13.952s25.088-4.672 34.368-13.888l360.704-360.704 360.512 360.704c9.28 9.216 20.8 13.888 34.368 13.888 13.632 0 25.088-4.672 34.368-13.952l68.736-68.736c9.152-9.28 13.824-20.8 13.824-34.368 0-13.632-4.672-25.088-13.952-34.24l-360.512-360.704 360.512-360.512c9.28-9.408 13.952-20.736 13.952-34.496 0.064-13.632-4.608-25.088-13.888-34.432z" />
<glyph unicode="&#xe604;" glyph-name="close-circle" d="M765.952 297.28c0 11.648-4.224 21.504-12.608 30.016l-120.704 120.704 120.704 120.64c8.384 8.448 12.608 18.432 12.608 30.016 0 12.032-4.224 22.208-12.608 30.656l-60.032 59.968c-8.512 8.448-18.688 12.672-30.784 12.672-11.52 0-21.44-4.224-29.952-12.672l-120.576-120.64-120.64 120.64c-8.512 8.448-18.496 12.672-30.016 12.672-11.968 0-22.272-4.224-30.656-12.672l-59.968-59.968c-8.448-8.448-12.672-18.688-12.672-30.656 0-11.584 4.224-21.44 12.672-30.016l120.64-120.64-120.64-120.704c-8.448-8.384-12.672-18.368-12.672-30.016 0-11.968 4.224-22.272 12.672-30.72l59.968-59.968c8.448-8.384 18.688-12.544 30.656-12.544 11.584 0 21.504 4.16 30.016 12.544l120.64 120.704 120.64-120.64c8.448-8.384 18.432-12.544 29.952-12.544 12.096 0 22.336 4.16 30.784 12.544l60.032 59.968c8.32 8.448 12.544 18.752 12.544 30.656zM1024 448c0-92.864-22.912-178.56-68.608-256.96-45.888-78.528-107.904-140.672-186.304-186.432-78.592-45.696-164.224-68.544-257.088-68.544s-178.56 22.784-257.088 68.544c-78.4 45.824-140.544 107.904-186.304 186.432-45.696 78.4-68.608 164.096-68.608 256.96s22.912 178.56 68.672 257.024 107.84 140.544 186.304 186.304c78.464 45.696 164.16 68.608 257.024 68.608s178.496-22.912 257.088-68.672c78.4-45.76 140.48-107.84 186.304-186.304 45.632-78.4 68.608-164.096 68.608-256.96z" />
<glyph unicode="&#xe605;" glyph-name="down" d="M828.8 674.24l-316.8-316.736-316.8 316.8-67.84-67.904 384.64-384.64 384.64 384.64-67.84 67.84z" />
<glyph unicode="&#xe606;" glyph-name="download" d="M787.776 111.872c0 10.112-3.904 19.008-11.776 26.368-7.744 7.488-17.024 11.072-27.712 11.072-10.624 0-19.904-3.84-27.712-11.072-7.744-7.36-11.776-16.128-11.776-26.368 0-10.112 4.032-18.88 11.776-26.24s17.024-11.072 27.712-11.072c10.624-0.128 19.904 3.712 27.712 11.072 7.872 7.36 11.776 16.192 11.776 26.24zM945.344 111.872c0 10.112-3.904 19.008-11.776 26.368-7.744 7.488-16.896 11.072-27.712 11.072-10.624 0-19.904-3.84-27.712-11.072-7.872-7.36-11.776-16.128-11.776-26.368 0-10.112 3.904-18.88 11.776-26.24 7.744-7.36 17.024-11.072 27.712-11.072 10.752-0.128 19.904 3.712 27.712 11.072s11.776 16.192 11.776 26.24zM1024 242.624v-186.624c0-15.552-5.76-28.864-17.28-39.744-11.584-10.88-25.408-16.256-41.792-16.256h-905.856c-16.384 0-30.336 5.376-41.792 16.256s-17.28 24.192-17.28 39.744v186.624c0 15.552 5.76 28.736 17.28 39.616s25.344 16.384 41.792 16.384h286.144l83.2-79.424c23.68-21.824 51.712-32.64 83.648-32.64 32.064 0 59.968 10.816 83.776 32.64l83.648 79.424h285.696c16.384 0 30.336-5.44 41.792-16.384 11.392-10.944 17.024-24.064 17.024-39.616v0zM824 574.592c6.976-16.064 4.096-29.632-8.64-40.896l-275.648-261.312c-7.296-7.36-16.576-11.136-27.712-11.136-11.072 0-20.224 3.84-27.712 11.2l-275.648 261.312c-12.736 11.2-15.616 24.832-8.64 40.832 6.912 15.040 19.136 22.656 36.288 22.656h157.504v261.44c0 10.048 3.968 18.816 11.776 26.304 7.744 7.36 16.96 11.008 27.648 11.008h157.504c10.624 0 19.904-3.712 27.712-11.072 7.872-7.424 11.776-16.192 11.776-26.304v-261.44h157.44c17.216 0.128 29.376-7.488 36.352-22.592v0z" />
<glyph unicode="&#xe607;" glyph-name="edit" d="M1022.976 714.112c0-23.872-8.384-44.096-25.024-60.736l-111.936-112-280.64 280.704 112 111.296c16.256 17.152 36.416 25.6 60.672 25.6 23.744 0 44.224-8.512 61.376-25.6l158.592-157.888c16.64-17.472 24.896-38.016 24.96-61.376v0zM562.24 778.816l-561.216-561.216v-280.64h280.704l561.28 561.28-280.768 280.576zM250.368 12.544h-81.984v91.84h-91.84v81.92l485.696 485.696 69.44-69.504-425.536-425.536c-3.84-3.904-5.632-8.448-5.632-13.824 0-11.84 5.888-17.856 17.728-17.856 5.376 0 9.984 1.856 13.824 5.696l425.6 425.6 78.336-78.336-485.632-485.696z" />
<glyph unicode="&#xe608;" glyph-name="exclamation-circle" d="M512 960c-282.752 0-512-229.248-512-512 0-282.816 229.248-512 512-512s512 229.184 512 512c0 282.752-229.248 512-512 512zM576 64h-128v128h128v-128zM596.032 640l-20.032-320h-128l-19.968 320-12.032 192h192l-11.968-192z" />
<glyph unicode="&#xe609;" glyph-name="exit" d="M984.576 408.64c0-64-12.544-125.12-37.568-183.36s-58.688-108.48-100.928-150.784c-42.24-42.304-92.544-75.904-150.784-100.992-58.24-25.024-119.36-37.504-183.36-37.504s-125.12 12.48-183.36 37.504c-58.24 25.024-108.48 58.688-150.784 100.992-42.24 42.24-75.904 92.544-100.992 150.784-25.024 58.24-37.504 119.36-37.504 183.36 0 74.624 16.512 145.024 49.6 211.072 33.024 65.984 79.488 121.408 139.392 166.080 17.664 13.12 37.248 18.304 58.752 15.424s38.656-13.184 51.328-30.784c13.12-17.216 18.176-36.608 15.104-58.176-3.008-21.568-13.184-38.912-30.4-52.032-40.192-30.336-71.296-67.456-93.248-111.36s-32.896-90.624-32.896-140.288c0-42.688 8.256-83.392 24.896-122.176s39.104-72.32 67.392-100.608c28.288-28.288 61.824-50.752 100.608-67.392 38.784-16.576 79.488-24.96 122.176-24.96s83.392 8.32 122.176 24.96c38.784 16.576 72.384 39.104 100.608 67.392 28.352 28.288 50.752 61.824 67.392 100.608s24.896 79.488 24.896 122.176c0 49.664-10.944 96.448-32.896 140.288-21.888 43.904-52.992 81.024-93.184 111.36-17.216 13.12-27.392 30.464-30.464 51.968-3.072 21.568 1.92 40.96 15.104 58.176 12.736 17.664 29.952 27.904 51.712 30.784s41.216-2.304 58.432-15.424c59.84-44.672 106.368-100.096 139.392-166.144s49.6-136.448 49.6-211.072h-0.192zM590.656 881.216v-393.856c0-21.312-7.808-39.808-23.424-55.424-15.552-15.488-34.048-23.296-55.36-23.36-21.312 0-39.808 7.744-55.36 23.36-15.616 15.616-23.424 34.112-23.424 55.424v393.856c0 21.376 7.808 39.808 23.424 55.36 15.616 15.616 34.048 23.424 55.36 23.424s39.808-7.744 55.36-23.424c15.616-15.616 23.424-34.048 23.424-55.36z" />
<glyph unicode="&#xe60a;" glyph-name="flow" d="M802.112 320.128h-204.992l-256.128-256.128h-340.992v-128h393.92l256.256 256.192h151.936v-71.744l221.888 135.744-221.888 135.744zM458.176 576.128h343.936v-71.744l221.888 135.744-221.888 135.744v-71.808h-290.88l-255.936 255.936h-255.296v-128h202.304zM597.312 343.68l204.8 104.32-204.8 104.256v-40.256h-597.312v-128h597.312z" />
<glyph unicode="&#xe60b;" glyph-name="frame" d="M0 0c0-35.392 28.608-64 64-64h896c35.392 0 64 28.608 64 64v628.16h-1024v-628.16zM649.92 501.632h300.672v-458.752h-300.672v458.752zM73.92 501.632h512v-64h-512v64zM73.92 370.752h512v-64h-512v64zM73.92 241.6h512v-64h-512v64zM73.92 110.72h512v-64h-512v64zM1024 896c0 35.392-28.608 64-64 64h-896c-35.392 0-64-28.608-64-64v-203.84h1024v203.84zM713.28 754.112h-640v128h640v-128zM950.656 754.112h-192v128h192v-128z" />
<glyph unicode="&#xe60c;" glyph-name="gear" d="M542.784 885.248l12.032-79.168 6.912-45.504 43.584-14.272c17.92-5.76 34.496-12.608 49.28-20.096l41.664-21.44 99.52 75.008c20.736-19.776 35.712-34.816 46.272-46.016-2.816-3.648-5.952-7.616-9.408-11.968-17.6-22.336-29.76-38.208-38.208-50.048l-26.56-37.184 21.184-40.576c9.408-18.24 16.896-36.16 22.144-53.056l13.952-44.608 124.224-19.008v-61.824l-122.944-18.624-14.976-42.24c-7.168-20.352-14.272-37.248-21.184-49.984l-21.952-40.64 26.432-37.696c12.096-17.344 28.48-38.912 49.216-64.832-8.64-9.28-19.776-20.8-34.368-35.264-4.544-4.48-8.704-8.32-12.224-11.776l-61.312 48-38.016 29.632-42.624-22.272c-15.808-8.32-32.128-15.040-48.64-20.288l-45.952-14.592-5.696-47.808c-3.968-34.24-7.424-58.88-10.304-76.672h-63.744l-12.032 79.232-6.848 45.376-43.584 14.336c-18.112 5.952-34.688 12.8-49.344 20.224l-41.792 21.44-37.44-28.352-61.632-46.912c-20.928 19.648-35.968 34.688-46.656 46.016 2.816 3.648 6.016 7.68 9.6 12.096 17.6 22.464 29.696 38.272 37.952 49.792l27.136 37.824-22.080 41.216c-9.472 17.472-16.576 34.688-21.312 51.008l-13.12 46.4-125.312 18.496v61.696l124.864 18.752 13.824 44.928c4.928 15.808 11.712 31.872 20.288 47.552l22.144 40.64-26.624 37.952c-13.376 19.008-29.44 40.384-48.768 64.576 8.32 9.024 19.328 20.288 33.664 34.496 4.544 4.416 8.704 8.32 12.224 11.776l99.904-77.504 42.56 22.464c15.488 8.064 31.872 14.912 48.576 20.224l45.824 14.592 5.632 47.808c4.032 34.048 7.488 58.752 10.304 76.672h63.744zM585.92 959.872h-148.032c-12.8 0-20.8-6.144-24-18.624-5.76-22.144-12.16-63.488-19.328-123.968-20.736-6.592-41.088-15.040-60.608-25.344l-92.032 71.36c-5.76 4.416-11.52 6.72-17.28 6.72-9.792 0-30.784-15.872-62.976-47.68-32.256-31.808-54.208-55.616-65.728-71.616-3.968-5.824-5.952-10.944-5.952-15.36 0-5.312 2.24-10.688 6.656-16 29.76-36.032 53.568-66.688 71.36-92.032-11.136-20.48-19.776-40.896-26.048-61.312l-123.968-18.752c-4.864-0.896-9.088-3.712-12.736-8.704-3.456-4.8-5.248-9.92-5.248-15.296v-148.032c0-5.76 1.792-11.008 5.312-15.616 3.584-4.672 8.32-7.488 14.016-8.384l122.048-17.984c6.208-21.824 15.36-43.776 27.264-65.984-8-11.072-19.968-26.752-35.968-46.976-16.064-20.096-27.392-34.944-34.048-44.224-3.52-4.928-5.312-10.048-5.312-15.36 0-5.824 1.472-10.944 4.608-15.36 17.408-24 54.016-61.248 110.080-111.936 4.8-4.864 10.432-7.296 16.64-7.296 6.592 0 12.16 1.856 16.576 5.888l94.016 71.36c18.176-9.408 38.272-17.472 59.968-24.704l18.688-122.688c0.384-5.696 2.944-10.56 7.616-14.4 4.672-3.776 10.176-5.568 16.32-5.568h148.096c12.928 0 20.864 6.208 24.064 18.624 5.696 22.272 12.16 63.488 19.264 124.032 20.928 6.592 41.152 15.040 60.608 25.28l92.096-71.936c6.144-4.032 12.096-6.016 17.408-6.016 9.728 0 30.592 15.808 62.528 47.296 32.064 31.488 54.144 55.552 66.112 72 3.968 4.416 6.016 9.536 6.016 15.36 0 5.76-2.304 11.328-6.72 16.64-32 39.040-55.744 69.76-71.296 91.968 8.96 16.512 17.536 36.736 25.984 60.608l123.392 18.688c5.312 0.896 9.792 3.776 13.376 8.768 3.456 4.928 5.248 10.048 5.248 15.424v147.84c0 5.824-1.792 11.008-5.248 15.744-3.584 4.672-8.32 7.488-14.016 8.32l-122.112 18.688c-6.592 21.376-15.68 43.072-27.264 65.28 8 11.2 20.032 26.816 36.032 47.040 16.064 20.224 27.328 34.944 34.048 44.288 3.456 4.992 5.312 10.112 5.312 15.424 0 6.144-1.664 11.008-4.672 14.592-16.064 22.72-52.8 60.48-110.144 113.344-5.312 4.416-10.88 6.656-16.576 6.656-6.656 0-12.096-1.984-16.064-5.888l-94.656-71.36c-18.24 9.344-38.336 17.536-60.032 24.704l-18.688 122.624c-0.448 5.632-2.944 10.56-7.616 14.208-4.736 3.84-10.176 5.632-16.384 5.632v0zM511.936 554.304c58.624 0 106.304-47.68 106.304-106.368s-47.552-106.304-106.304-106.304-106.24 47.68-106.24 106.304 47.616 106.368 106.24 106.368zM511.936 628.864c-99.968 0-180.992-81.024-180.992-180.928s81.088-180.928 180.992-180.928c99.968 0 180.992 81.024 180.992 180.928s-80.896 180.928-180.992 180.928v0z" />
<glyph unicode="&#xe60d;" glyph-name="gear-circle" d="M682.624 447.936c0 47.104-16.64 87.36-49.984 120.704s-73.6 49.92-120.704 49.92c-47.104 0-87.36-16.64-120.704-49.92-33.344-33.344-49.92-73.6-49.92-120.704s16.64-87.36 49.92-120.704c33.344-33.344 73.6-49.92 120.704-49.92s87.36 16.64 120.704 49.92c33.344 33.344 49.984 73.6 49.984 120.704zM1024 520.576v-147.968c0-5.312-1.792-10.496-5.376-15.36s-8-7.744-13.312-8.64l-123.392-18.688c-8.448-24-17.088-44.224-25.984-60.672 15.552-22.208 39.296-52.928 71.296-91.968 4.48-5.312 6.72-10.88 6.72-16.64 0-5.824-2.048-10.944-6.080-15.36-11.968-16.448-33.984-40.448-65.984-72s-52.928-47.36-62.656-47.36c-5.312 0-11.136 2.048-17.344 6.080l-92.032 72c-19.52-10.24-39.744-18.688-60.672-25.344-7.040-60.48-13.568-101.824-19.328-123.968-3.072-12.416-11.072-18.688-24-18.688h-147.904c-6.208 0-11.648 1.92-16.32 5.632-4.672 3.776-7.232 8.576-7.68 14.336l-18.688 122.624c-21.76 7.168-41.792 15.36-60.032 24.704l-93.952-71.36c-4.416-4.032-9.984-5.952-16.64-5.952-6.208 0-11.84 2.432-16.64 7.296-56 50.688-92.672 88-110.016 112-3.136 4.416-4.672 9.6-4.672 15.36 0 5.312 1.792 10.432 5.312 15.296 6.72 9.344 17.984 24.128 34.048 44.352 16 20.288 28.032 35.968 35.968 47.040-11.968 22.272-21.056 44.224-27.328 65.984l-121.984 18.048c-5.76 0.896-10.432 3.648-14.016 8.32-3.52 4.672-5.312 9.856-5.312 15.68v148.032c0 5.312 1.792 10.368 5.312 15.296 3.584 4.928 7.808 7.808 12.672 8.704l123.968 18.688c6.208 20.416 14.848 40.896 25.984 61.312-17.728 25.344-41.472 55.936-71.296 91.968-4.48 5.312-6.72 10.624-6.72 16 0 4.416 1.984 9.536 6.016 15.36 11.52 15.936 33.408 39.872 65.664 71.68s53.248 47.68 63.040 47.68c5.76 0 11.52-2.24 17.28-6.72l92.032-71.36c19.52 10.24 39.808 18.688 60.672 25.344 7.104 60.48 13.568 101.824 19.328 123.968 3.136 12.416 11.136 18.688 24 18.688h148.032c6.208 0 11.648-1.856 16.32-5.632s7.232-8.576 7.68-14.336l18.688-122.624c21.824-7.168 41.792-15.36 60.032-24.704l94.656 71.36c4.032 4.032 9.344 5.952 16.064 5.952 5.76 0 11.328-2.24 16.64-6.656 57.408-52.928 94.016-90.688 110.016-113.344 3.072-3.584 4.672-8.448 4.672-14.656 0-5.312-1.792-10.432-5.376-15.36-6.656-9.344-17.984-24.128-33.984-44.352s-28.032-35.904-35.968-46.976c11.584-22.208 20.672-44.032 27.328-65.344l122.048-18.688c5.76-0.896 10.432-3.712 14.016-8.32 3.392-4.672 5.184-9.92 5.184-15.744z" />
<glyph unicode="&#xe60e;" glyph-name="gears" d="M478.208 448.32c0 37.312-13.184 69.248-39.616 95.616s-58.304 39.616-95.616 39.616-69.248-13.184-95.616-39.616c-26.432-26.432-39.616-58.304-39.616-95.616s13.184-69.312 39.616-95.68c26.368-26.432 58.304-39.616 95.616-39.616s69.184 13.184 95.616 39.616c26.432 26.368 39.616 58.304 39.616 95.68zM883.904 177.792c0 18.304-6.656 34.112-20.032 47.488-13.44 13.44-29.248 20.032-47.552 20.032-18.304 0.064-34.24-6.656-47.552-20.032-13.44-13.376-20.096-29.248-20.096-47.488 0-18.624 6.656-34.624 19.904-47.808s29.12-19.904 47.808-19.904c18.56 0 34.624 6.656 47.808 19.904 13.12 13.12 19.712 29.12 19.712 47.808zM883.904 718.784c0 18.304-6.656 34.176-20.032 47.552-13.44 13.312-29.248 20.032-47.552 20.096-18.304 0-34.24-6.72-47.552-20.096-13.44-13.44-20.096-29.312-20.096-47.552 0-18.688 6.656-34.624 19.904-47.808s29.12-19.84 47.808-19.84c18.56 0 34.624 6.592 47.808 19.84 13.12 13.248 19.712 29.12 19.712 47.808zM681.088 496.384v-97.792c0-3.52-1.344-6.912-3.648-10.304-2.496-3.328-5.376-5.184-8.512-5.504l-81.92-12.736c-4.032-12.352-9.536-25.792-16.896-40.128 11.968-16.896 27.776-37.12 47.552-60.736 2.368-3.584 3.712-7.040 3.712-10.56 0-4.16-1.344-7.616-3.712-10.048-8.192-10.56-22.656-26.304-43.584-47.296-20.992-20.928-34.816-31.36-41.472-31.36-3.84 0-7.552 1.216-11.072 3.648l-60.736 47.552c-13.056-6.656-26.624-12.096-40.704-16.384-3.84-38.016-7.936-65.344-12.16-81.856-2.432-8.512-7.744-12.736-15.872-12.736h-98.304c-3.84 0-7.36 1.344-10.624 4.032-3.136 2.688-4.928 5.76-5.312 9.344l-12.16 80.832c-11.968 3.52-25.216 8.96-39.616 16.384l-62.208-47.296c-2.496-2.432-6.016-3.648-10.56-3.648-3.84 0-7.552 1.408-11.072 4.16-50.752 46.848-76.096 75.008-76.096 84.544 0 3.136 1.28 6.528 3.712 9.984 3.584 4.928 10.752 14.272 21.632 28.032 10.944 13.696 19.2 24.448 24.896 32.192-8.192 15.552-14.336 30.016-18.56 43.328l-80.32 12.736c-3.52 0.384-6.528 2.048-9.024 5.056-2.432 3.008-3.648 6.4-3.648 10.304v97.792c0 3.584 1.28 6.976 3.712 10.304 2.496 3.328 5.312 5.184 8.448 5.568l81.92 12.736c3.84 12.288 9.472 25.664 16.896 40.128-12.032 16.896-27.84 37.12-47.616 60.736-2.432 3.84-3.648 7.36-3.648 10.56 0 4.16 1.216 7.744 3.712 10.56 7.744 10.56 22.208 26.24 43.264 46.976 21.12 20.8 35.072 31.232 41.792 31.232 3.84 0 7.552-1.28 11.072-3.712l60.736-47.552c11.968 6.336 25.536 11.904 40.64 16.896 3.904 38.080 7.936 65.152 12.16 81.344 2.56 8.512 7.808 12.736 15.872 12.736h98.24c3.904 0 7.424-1.344 10.56-3.968 3.2-2.624 4.992-5.76 5.376-9.28l12.096-80.832c11.968-3.52 25.152-8.96 39.616-16.384l62.336 47.040c2.816 2.432 6.336 3.712 10.56 3.712 3.904 0 7.552-1.408 11.072-4.224 50.752-46.784 76.096-75.008 76.096-84.544 0-3.136-1.344-6.528-3.84-9.984-4.032-5.696-11.52-15.168-21.952-28.608-10.624-13.376-18.496-24-23.936-31.68 8.064-16.896 14.080-31.36 17.984-43.328l80.384-12.096c3.52-0.704 6.4-2.624 8.896-5.568 2.432-3.008 3.648-6.464 3.648-10.304h0.192zM1019.2 214.72v-73.92c0-5.696-26.24-11.136-78.784-16.512-4.16-9.408-9.472-18.688-15.808-27.456 17.92-39.744 26.944-64.128 26.944-72.896 0-1.344-0.64-2.624-2.048-3.712-43.008-25.088-64.832-37.504-65.6-37.504-2.752 0-10.816 8.256-24.192 24.704-13.44 16.704-22.592 28.608-27.584 36.032-7.040-0.704-12.224-1.088-15.808-1.088-3.52 0-8.896 0.384-15.936 1.088-4.8-7.36-14.016-19.328-27.456-36.032-13.312-16.448-21.44-24.704-24.32-24.704-0.64 0-22.464 12.416-65.408 37.504-1.408 1.088-2.112 2.304-2.112 3.712 0 8.768 9.088 33.152 26.944 72.896-6.272 8.768-11.648 17.92-15.808 27.456-52.48 5.376-78.784 10.816-78.784 16.512v73.92c0 5.632 26.304 11.136 78.784 16.32 4.544 10.24 9.792 19.456 15.808 27.584-17.856 39.744-26.944 64.064-26.944 72.896 0 1.344 0.704 2.624 2.112 3.776 1.408 0.64 7.552 4.16 18.56 10.496 10.816 6.336 21.248 12.352 31.040 17.984 9.92 5.568 15.168 8.448 15.936 8.448 2.752 0 10.88-8.192 24.192-24.576 13.44-16.384 22.656-28.16 27.584-35.648 7.040 0.704 12.288 1.024 15.808 1.024 3.584 0 8.896-0.32 15.808-1.024 18.048 24.96 34.24 44.736 48.768 59.2l3.136 1.024c1.408 0 23.232-12.224 65.472-36.928 1.408-1.088 2.048-2.304 2.048-3.776 0-8.832-9.024-33.088-26.944-72.832 6.080-8.192 11.264-17.28 15.808-27.52 52.608-5.248 78.784-10.816 78.784-16.448v0zM1019.2 755.776v-73.984c0-5.632-26.24-11.072-78.784-16.384-4.16-9.536-9.472-18.688-15.808-27.456 17.92-39.872 26.944-64.128 26.944-72.96 0-1.408-0.64-2.624-2.048-3.712-43.008-25.024-64.832-37.504-65.6-37.504-2.752 0-10.816 8.256-24.192 24.896-13.44 16.512-22.592 28.48-27.584 35.904-7.040-0.704-12.224-1.024-15.808-1.024-3.52 0-8.896 0.32-15.936 1.024-4.8-7.424-14.016-19.328-27.456-35.904-13.312-16.576-21.44-24.896-24.32-24.896-0.64 0-22.464 12.48-65.408 37.504-1.408 1.152-2.112 2.304-2.112 3.712 0 8.832 9.088 33.088 26.944 72.96-6.272 8.768-11.648 17.92-15.808 27.456-52.416 5.312-78.72 10.752-78.72 16.384v73.984c0 5.632 26.304 11.072 78.784 16.384 4.544 10.24 9.792 19.392 15.808 27.456-17.856 39.808-26.944 64.128-26.944 72.896 0 1.344 0.704 2.688 2.112 3.712 1.408 0.704 7.552 4.224 18.56 10.624 10.816 6.336 21.248 12.288 31.040 17.984 9.92 5.568 15.168 8.448 15.936 8.448 2.752 0 10.88-8.192 24.192-24.576 13.44-16.32 22.656-28.288 27.584-35.648 7.040 0.704 12.288 1.088 15.808 1.088 3.584 0 8.896-0.384 15.808-1.088 18.048 25.024 34.24 44.736 48.768 59.136l3.136 1.088c1.408 0 23.232-12.352 65.472-36.992 1.408-1.088 2.048-2.304 2.048-3.712 0-8.832-9.024-33.088-26.944-72.896 6.080-8.064 11.264-17.28 15.808-27.456 52.544-5.312 78.72-10.816 78.72-16.448v0z" />
<glyph unicode="&#xe60f;" glyph-name="btn-off" d="M976.064 782.144h-928.32c-26.368 0-47.744-21.376-47.744-47.744v-572.736c0-26.368 21.376-47.744 47.744-47.744h928.512c26.432 0 47.744 21.376 47.744 47.744v572.736c0 26.368-21.376 47.744-47.936 47.744zM833.024 201.92c0-13.12-10.752-23.872-23.872-23.872h-721.152c-13.184 0-23.808 10.752-23.808 23.872v492.16c0 13.248 10.624 23.872 23.808 23.872h721.216c13.12 0 23.872-10.624 23.872-23.872v-492.16h-0.064zM343.936 551.872c-24.192 24.96-56.384 37.44-96.704 37.44-22.272 0-41.92-3.584-58.88-10.752-12.8-5.376-24.576-13.568-35.328-24.704-10.688-10.944-19.2-23.552-25.408-37.504-8.256-18.88-12.48-42.24-12.48-70.016 0-43.584 12.032-77.696 35.968-102.464 23.936-24.832 56.256-37.248 96.832-37.248 40.128 0 72.192 12.48 96.256 37.376s35.968 59.456 35.968 103.552c0.064 44.544-12.096 79.296-36.224 104.32zM247.808 369.792c-17.344 0-31.232 6.080-42.56 18.624-11.392 12.928-17.216 33.024-17.216 59.712 0 27.264 5.696 47.424 16.832 59.968 10.752 12.096 24.832 17.984 43.008 17.984 18.112 0 32.128-5.76 42.816-17.664 10.944-12.288 16.512-32.32 16.512-59.456-0.064-27.52-5.824-47.936-17.152-60.608-11.136-12.48-24.896-18.56-42.24-18.56zM414.656 311.296h65.28v103.936h104v58.496h-104v52.352h105.28v58.624h-170.56zM615.68 311.296h65.152v103.936h104.128v58.496h-104.128v52.352h104.896v58.624h-170.048z" />
<glyph unicode="&#xe610;" glyph-name="btn-on" d="M976.384 782.080h-928.64c-26.304 0-47.744-21.312-47.744-47.68v-572.8c0-26.368 21.44-47.68 47.744-47.68h928.64c26.176 0 47.616 21.376 47.616 47.68v572.8c0 26.368-21.504 47.68-47.616 47.68zM960 201.728c0-13.12-10.752-23.872-23.808-23.872h-721.408c-13.12 0-23.872 10.752-23.872 23.872v492.544c0 13.184 10.752 23.872 23.872 23.872h721.408c13.056-0.064 23.808-10.688 23.808-23.936v-492.48zM535.808 551.808c-10.368 10.624-22.4 18.56-35.648 24.64-17.792 8.256-37.952 12.864-61.12 12.864-22.272 0-41.856-3.52-58.944-10.816-12.8-5.312-24.64-13.568-35.328-24.704-10.688-10.944-19.2-23.488-25.408-37.376-8.32-18.88-12.48-42.24-12.48-70.080 0-43.52 12.032-77.632 36.032-102.4 24-24.896 56.32-37.184 96.96-37.184 40.192 0 72.192 12.352 96.192 37.376 21.504 22.336 32.768 52.672 35.072 90.24 0.256 4.416 0.96 8.576 0.96 13.248 0 44.416-12.096 79.232-36.288 104.192zM439.616 369.856c-9.728 0-18.752 2.752-28.48 8.576-6.272 3.712-10.816 6.4-14.208 10.112-11.456 12.736-17.28 32.832-17.28 59.648 0 27.264 5.632 47.36 16.768 59.84 10.816 12.16 24.896 18.112 43.072 18.112 8.448 0 16.192-1.408 23.616-4.352l2.048-0.832h0.128c1.152-0.768 16.704-12.032 17.088-12.544 10.944-12.224 16.512-32.256 16.512-59.456 0.064-27.584-5.696-48.064-17.024-60.8-11.008-12.288-24.832-18.304-42.24-18.304zM781.248 412.992l-104.256 171.648h-61.376v-273.344h61.376v168.704l100.096-168.704h64.896v273.344h-60.736z" />
<glyph unicode="&#xe611;" glyph-name="info" d="M512 960c-282.752 0-512-229.184-512-512 0-282.752 229.248-512 512-512s512 229.248 512 512c0 282.816-229.248 512-512 512zM588.032 66.176h-152.064v481.024h152.064v-481.024zM512 651.2c-49.344 0-89.344 40-89.344 89.344s40 89.28 89.344 89.28 89.344-40 89.344-89.344-40-89.28-89.344-89.28z" />
<glyph unicode="&#xe612;" glyph-name="join" d="M910.4 960h-462.528c-27.328 0-49.472-22.208-49.472-49.536s22.208-49.536 49.536-49.536h412.992v-825.984h-413.056c-27.328 0-49.536-22.144-49.536-49.472 0.064-27.264 22.272-49.472 49.536-49.472h462.528c27.328 0 49.6 22.208 49.6 49.536v924.928c0 27.328-22.336 49.536-49.6 49.536zM460.48 223.552l224.448 224.448-224.448 224.448v-174.912h-353.984c-23.36 0-42.496-22.208-42.496-49.536s19.072-49.536 42.496-49.536h354.048v-174.912z" />
<glyph unicode="&#xe613;" glyph-name="logo-ads" d="M927.424 844.928h-830.912c-53.184 0-96.512-44.416-96.512-98.944v-595.968c0-54.528 43.328-98.944 96.512-98.944h830.912c53.248 0 96.576 44.416 96.576 98.944v595.968c0 54.528-43.328 98.944-96.576 98.944zM927.424 142.528h-830.912c-3.968 0-7.296 3.328-7.296 7.488v519.104h845.44v-519.104c0-4.16-3.2-7.488-7.232-7.488zM694.144 594.112v-131.904c-11.904 12.032-24.832 21.12-38.784 27.136s-28.928 9.024-44.864 9.024c-34.624 0-64.064-13.12-88.32-39.36-3.2-3.456-6.080-7.104-8.832-10.816l2.688-7.68 27.52-77.632c0.768 20.928 7.36 38.4 20.16 52.032 13.632 14.592 30.72 21.888 51.328 21.888 21.12 0 38.528-7.168 52.352-21.504s20.736-33.088 20.736-56.192c0-23.616-6.912-42.688-20.736-57.28-13.76-14.592-31.168-21.888-52.096-21.888-19.584 0-36.16 7.104-49.792 20.928l28.48-80.384c6.016-0.96 12.096-1.6 18.432-1.6 15.296 0 29.504 2.752 42.56 8.192 13.12 5.44 26.176 14.4 39.168 26.752v-28.096h66.688v368.384h-66.688zM437.184 576.064h-65.984l-129.472-359.36h88.704l73.28 216.064 73.856-216.064h86.912z" />
<glyph unicode="&#xe614;" glyph-name="logo-analytics" d="M927.424 844.864h-830.912c-53.184 0-96.512-44.352-96.512-98.944v-596.032c0-54.592 43.328-98.816 96.512-98.816h830.912c53.248 0 96.576 44.224 96.576 98.816v596.032c0 54.592-43.328 98.944-96.576 98.944zM934.656 149.952c0-4.096-3.264-7.424-7.232-7.424h-830.912c-4.032 0-7.296 3.328-7.296 7.424v519.104h845.44v-519.104zM201.152 222.976c29.312 0 53.056 23.808 53.056 52.992 0 5.824-1.6 11.136-3.328 16.448l122.624 118.656c5.696-2.176 11.712-3.776 18.176-3.776 7.488 0 14.656 1.664 21.12 4.48l140.032-122.176c-1.216-4.416-2.688-8.768-2.688-13.632 0-29.184 23.744-52.992 53.12-52.992 29.312 0 53.056 23.808 53.056 52.992 0 6.912-1.536 13.44-4.032 19.584l155.52 167.936c4.864-1.408 9.728-3.008 15.168-3.008 29.376 0 53.12 23.744 53.12 53.056s-23.744 53.12-53.12 53.12c-29.312 0-53.056-23.808-53.056-53.12 0-6.848 1.536-13.376 3.968-19.392l-155.648-167.936c-4.864 1.344-9.664 3.008-15.104 3.008-7.424 0-14.592-1.6-21.056-4.416l-140.032 122.048c1.216 4.48 2.752 8.768 2.752 13.632 0 29.248-23.744 53.056-53.184 53.056-29.312 0-53.056-23.808-53.056-53.056 0-5.824 1.6-11.136 3.328-16.32l-122.56-118.656c-5.76 2.176-11.712 3.712-18.176 3.712-29.376 0-53.184-23.744-53.184-53.184 0-29.248 23.744-53.056 53.184-53.056z" />
<glyph unicode="&#xe615;" glyph-name="logo-dmp" d="M926.592 844.16h-829.184c-53.12 0-96.32-44.288-96.32-98.752v-594.752c0-54.528 43.2-98.752 96.32-98.752h829.184c53.184 0 96.384 44.224 96.384 98.752v594.688c-0.064 54.528-43.2 98.816-96.384 98.816zM933.888 150.656c0-4.096-3.264-7.488-7.296-7.488h-829.184c-4.032 0-7.296 3.392-7.296 7.488v518.016h843.776v-518.016zM252.032 207.616c24.64 0 44.544 20.416 44.544 45.632v153.856c0 25.28-19.968 45.696-44.544 45.696s-44.544-20.416-44.544-45.696v-153.856c0-25.216 19.968-45.632 44.544-45.632zM425.28 207.616c24.64 0 44.608 20.416 44.608 45.632v304.448c0 25.216-19.968 45.632-44.608 45.632-24.576 0-44.48-20.416-44.48-45.632v-304.448c0-25.216 19.904-45.632 44.48-45.632zM598.656 207.616c24.64 0 44.48 20.416 44.48 45.632v264.96c0 25.216-19.904 45.632-44.48 45.632s-44.544-20.416-44.544-45.632v-264.96c0-25.216 19.968-45.632 44.544-45.632zM771.968 207.616c24.576 0 44.544 20.416 44.544 45.632v134.208c0 25.28-20.032 45.696-44.544 45.696-24.64 0-44.544-20.416-44.544-45.696v-134.208c-0.064-25.216 19.904-45.632 44.544-45.632z" />
<glyph unicode="&#xe616;" glyph-name="logo-mobile" d="M960.832 715.52c-34.816 0-63.104-28.288-63.104-63.168 0-8.192 1.856-15.936 4.672-23.104l-184.768-199.744c-5.824 1.792-11.648 3.648-18.048 3.648-8.896 0-17.344-1.92-25.024-5.248l-26.752 23.296v351.104c0 64.832-51.52 117.632-114.752 117.632h-418.24c-63.296 0-114.816-52.736-114.816-117.632v-708.608c0-64.896 51.52-117.632 114.816-117.632h418.24c63.296 0 114.752 52.8 114.752 117.632v242.112c11.264-17.088 29.696-29.056 51.776-29.056 34.816 0 63.104 28.288 63.104 63.168 0 8.192-1.792 15.936-4.672 23.168l184.832 199.744c5.824-1.792 11.648-3.648 18.048-3.648 34.88 0 63.104 28.288 63.104 63.168s-28.224 63.168-63.168 63.168zM323.904 37.952c-27.072 0-48.96 21.952-48.96 48.96 0 27.072 21.952 48.96 48.96 48.96s48.96-21.952 48.96-48.96c0-27.072-21.888-48.96-48.96-48.96zM106.24 185.088v617.216c0 4.928 3.776 8.896 8.576 8.896h418.24c4.736 0 8.704-3.968 8.704-8.896v-258.624l-33.728 29.376c1.408 5.248 3.264 10.432 3.264 16.128 0 34.88-28.224 63.168-63.168 63.168-34.816 0-63.104-28.288-63.104-63.168 0-6.848 1.856-13.184 3.904-19.392l-145.728-141.056c-6.784 2.56-13.952 4.416-21.632 4.416-34.944 0-63.168-28.288-63.168-63.168s28.224-63.168 63.168-63.168c34.816 0 63.104 28.288 63.104 63.168 0 6.912-1.856 13.248-3.904 19.456l145.664 140.992c6.784-2.496 14.016-4.352 21.696-4.352 8.896 0 17.344 1.92 25.024 5.248l68.544-59.776v-286.464h-435.456z" />
<glyph unicode="&#xe617;" glyph-name="logo-shop" d="M927.424 844.928h-830.912c-53.184 0-96.512-44.416-96.512-98.944v-595.968c0-54.528 43.328-98.944 96.512-98.944h830.912c53.248 0 96.576 44.416 96.576 98.944v595.968c0 54.528-43.328 98.944-96.576 98.944zM927.424 142.528h-830.912c-3.968 0-7.296 3.328-7.296 7.488v519.104h845.44v-519.104c0-4.16-3.2-7.488-7.232-7.488zM784.064 596.352h-84.608c-9.92 0-18.624-6.592-21.248-16.192l-67.2-242.176h-275.136l-11.456 50.496h161.408c12.224 0 22.080 9.856 22.080 22.080s-9.856 22.080-22.080 22.080h-171.392l-10.88 47.936h164.928c12.224 0 22.080 9.856 22.080 22.080s-9.856 22.080-22.080 22.080h-193.728c-12.16 0-22.080-9.856-22.080-22.080 0-3.84 1.28-7.296 3.008-10.496l41.344-182.016c0.128-0.704 1.088-0.896 1.344-1.536 3.072-8.448 11.008-14.656 20.544-14.656h308.864c9.92 0 18.624 6.656 21.248 16.192l67.2 242.112h67.84c12.16 0 22.080 9.856 22.080 22.080-0.064 12.16-9.92 22.016-22.080 22.016zM394.24 241.472c0-17.249-13.983-31.232-31.232-31.232s-31.232 13.983-31.232 31.232c0 17.249 13.983 31.232 31.232 31.232s31.232-13.983 31.232-31.232zM620.48 241.472c0-17.284-14.012-31.296-31.296-31.296s-31.296 14.012-31.296 31.296c0 17.284 14.012 31.296 31.296 31.296s31.296-14.012 31.296-31.296zM595.072 376.96l-6.592-2.688c-2.432-1.024-5.184 0.128-6.208 2.56l-25.024 60.608-26.624-11.008 0.704 95.744 68.032-67.328-26.688-11.008 25.024-60.608c1.024-2.432-0.192-5.248-2.624-6.272z" />
<glyph unicode="&#xe618;" glyph-name="logo-survey" d="M927.424 844.928h-830.912c-53.184 0-96.512-44.416-96.512-98.944v-595.968c0-54.528 43.328-98.944 96.512-98.944h830.912c53.248 0 96.576 44.416 96.576 98.944v595.968c0 54.528-43.328 98.944-96.576 98.944zM927.424 142.528h-830.912c-3.968 0-7.296 3.328-7.296 7.488v519.104h845.44v-519.104c0-4.16-3.2-7.488-7.232-7.488zM665.856 558.592v-0.064h-307.712v-307.648h307.712v79.488l-39.808-39.808v0.128h-228.096v228.096h228.096zM805.696 566.208l-18.176 18.176c-10.112 10.048-26.368 10.048-36.416 0l-181.952-182.016-90.944 91.008c-10.112 10.048-26.368 10.048-36.416 0l-18.24-18.24c-10.112-10.048-10.112-26.304 0-36.352l127.36-127.424c0.896-0.832 1.984-1.216 2.944-1.92 10.112-7.616 24.256-7.296 33.472 1.92l218.368 218.432c10.048 10.048 10.048 26.368 0 36.416z" />
<glyph unicode="&#xe619;" glyph-name="logo-video" d="M685.056 418.88l-263.616 158.080c-6.208 3.648-13.952 3.84-20.16 0.256-6.336-3.52-10.176-10.176-10.176-17.408v-316.352c0-7.232 3.904-13.888 10.176-17.408 3.072-1.728 6.464-2.624 9.856-2.624 3.584 0 7.168 0.96 10.304 2.88l263.616 158.208c6.080 3.584 9.728 10.112 9.728 17.152s-3.712 13.568-9.728 17.216zM927.488 844.928h-830.912c-53.248 0-96.576-44.416-96.576-98.944v-595.968c0-54.528 43.328-98.944 96.576-98.944h830.912c53.248 0 96.512 44.416 96.512 98.944v595.968c0 54.528-43.328 98.944-96.512 98.944zM927.488 142.528h-830.912c-4.032 0-7.296 3.328-7.296 7.488v519.104h845.44v-519.104c0-4.16-3.264-7.488-7.232-7.488z" />
<glyph unicode="&#xe61a;" glyph-name="magic" d="M256 768.064l-128 128h-64.064v-64l128-127.936 64.064 63.936zM320 960h64v-127.936h-64v127.936zM576 640h127.936v-64h-127.936v64zM639.936 832.064v64h-63.936l-128-128 64-64 127.936 128zM0 640h127.936v-64h-127.936v64zM320 384h64v-127.936h-64v127.936zM63.936 384v-63.936h64l128 127.936-64 64-128-128zM1009.92 78.016l-636.032 636.16c-18.688 18.688-49.28 18.688-67.968 0l-60.16-60.16c-18.688-18.688-18.688-49.28 0-67.968l636.16-636.096c18.752-18.752 49.28-18.752 67.904 0l60.16 60.16c18.688 18.624 18.688 49.216-0.064 67.904zM480 416.064l-192 192 64 63.936 192-192-64-63.936z" />
<glyph unicode="&#xe61b;" glyph-name="member" d="M360.064 212.8v112.576c0 0-35.008 60.032-47.488 125.056l-14.72 7.168c0 0-52.48 79.68-47.808 127.808 0 0 9.984 20.032 26.24 13.824 0 0-97.92 160 27.328 225.024 0 0-12.288 88.768 192.768 102.528 0 0 129.984 12.48 205.056-123.84 0 0 35.008-54.976 0-108.736 0 0-3.2-53.76-6.912-72.512 0 0 24.384 3.776 28.16-11.264 0 0 13.056-35.648-36.16-137.664l-15.104-3.648c0 0-17.216-115.968-39.68-140.288v-117.824c0 0 214.656-59.2 277.184-81.984 0 0 83.84-30.592 115.072-160.064h-1024c0 0 14.976 115.136 110.016 146.368 0 0 202.56 73.728 250.048 97.472z" />
<glyph unicode="&#xe61c;" glyph-name="ok-circle" d="M512 960c-282.752 0-512-229.248-512-512s229.248-512 512-512 512 229.248 512 512-229.248 512-512 512zM854.848 552.896l-416.192-416.256c-17.536-17.6-44.672-18.304-63.872-3.712-1.728 1.28-3.84 2.048-5.504 3.712l-242.752 242.816c-19.2 19.136-19.2 50.176 0 69.376l34.624 34.624c19.2 19.2 50.176 19.2 69.312 0l173.376-173.376 346.816 346.88c19.2 19.136 50.24 19.136 69.44 0l34.624-34.624c19.328-19.136 19.328-50.24 0.128-69.44z" />
<glyph unicode="&#xe61d;" glyph-name="play" d="M211.072 811.904l601.92-363.84-601.92-363.904v727.744zM211.072 960c-24.96 0-49.984-6.4-72.448-19.264-46.144-26.24-74.624-75.52-74.624-128.832v-727.68c0-53.44 28.48-102.656 74.56-128.96 22.464-12.864 47.488-19.264 72.448-19.264 26.176 0 52.416 7.040 75.712 21.12l601.92 363.904c44.224 26.752 71.36 75.008 71.36 127.040 0 52.096-27.136 100.288-71.36 127.040l-601.92 363.776c-23.232 14.080-49.472 21.12-75.648 21.12v0z" />
<glyph unicode="&#xe61e;" glyph-name="plus" d="M1024 517.888v-139.776c0-19.328-6.72-35.968-20.352-49.408-13.568-13.568-30.144-20.416-49.408-20.416h-302.528v-302.592c0-19.456-6.784-35.84-20.48-49.472-13.568-13.44-30.016-20.288-49.344-20.288h-139.712c-19.392 0-35.904 6.784-49.472 20.288-13.504 13.696-20.352 30.080-20.352 49.472v302.592h-302.528c-19.328 0-35.904 6.784-49.408 20.416-13.696 13.568-20.416 30.080-20.416 49.472v139.712c0 19.328 6.72 35.904 20.352 49.408 13.568 13.632 30.016 20.288 49.408 20.288h302.592v302.656c0 19.392 6.784 35.968 20.352 49.408 13.568 13.568 30.080 20.352 49.472 20.352h139.776c19.328 0 35.776-6.72 49.344-20.352 13.632-13.504 20.48-30.080 20.48-49.408v-302.656h302.528c19.328 0 35.904-6.656 49.408-20.288 13.568-13.504 20.288-30.016 20.288-49.408z" />
<glyph unicode="&#xe61f;" glyph-name="profile" d="M462.656 238.4c-90.112 0-180.288 0-270.528 0-25.152 10.88-42.56 25.856-47.424 47.488-14.4 62.976 16.576 168.768 80.32 168.192 21.888-0.384 44.608-23.168 69.504-29.312 24.64-6.016 48.064-5.888 69.44 0 29.888 8.128 42.176 30.208 69.376 29.312 80.384-2.88 113.856-198.336 29.312-215.68zM427.2 541.952c0-55.529-45.015-100.544-100.544-100.544s-100.544 45.015-100.544 100.544c0 55.529 45.015 100.544 100.544 100.544s100.544-45.015 100.544-100.544zM958.72 733.632c0.512-0.64 1.28-1.92 1.28-4.224v-562.816c0-2.56-0.96-3.968-0.64-4.224l-893.76-0.448c0 0.064-1.6 1.344-1.6 4.736v562.752c0 2.496 0.96 3.904 0.64 4.16l894.080 0.064zM960 797.632h-896c-35.392 0-64-30.592-64-68.16v-562.816c0-37.76 28.608-68.224 64-68.224h896c35.392 0 64 30.528 64 68.224v562.752c0 37.632-28.608 68.224-64 68.224v0zM600 610.368h295.872v-63.936h-295.872v63.936zM600 472.384h295.872v-64h-295.872v64zM600 334.4h295.872v-64h-295.872v64z" />
<glyph unicode="&#xe620;" glyph-name="question" d="M512 891.84c244.736 0 443.84-199.104 443.84-443.84s-199.104-443.84-443.84-443.84-443.84 199.104-443.84 443.84 199.104 443.84 443.84 443.84zM512 960c-282.752 0-512-229.248-512-512s229.248-512 512-512 512 229.248 512 512-229.248 512-512 512v0zM449.472 218.176h127.616v-126.080h-127.616v126.080zM727.232 562.752c-4.8-16.256-11.52-31.616-19.968-46.144-8.512-14.528-18.752-28.224-30.72-41.216s-25.152-25.472-39.488-37.376c-16.064-13.376-28.928-25.152-38.656-35.392s-16.384-19.136-19.776-26.688c-6.848-14.656-10.24-46.912-10.24-96.896h-115.264c0 68.352 6.656 116.352 19.968 144.064 12.992 26.688 37.248 54.784 72.768 84.544 15.36 12.608 27.328 23.872 35.84 33.6 8.576 9.792 15.040 18.432 19.392 26.112 4.48 7.68 7.232 14.848 8.256 21.504s1.472 13.632 1.472 20.736c0 13.376-2.24 25.664-6.912 36.864-4.48 11.328-11.2 21.056-19.648 29.312-8.512 8.192-18.624 14.656-30.208 19.2-11.648 4.672-24.576 6.912-38.976 6.912-56 0-90.176-39.104-102.464-117.376h-123.008c3.072 33.472 10.624 63.872 22.784 91.008s28.096 50.24 47.68 69.184c19.584 18.944 42.496 33.536 68.672 43.84 26.112 10.24 54.528 15.36 85.312 15.36 32.768 0 62.656-4.736 89.664-14.144s50.112-22.4 69.376-39.232c19.392-16.704 34.368-36.672 45.12-59.904s16.128-48.448 16.128-75.904c0.064-18.432-2.304-35.776-7.104-51.968z" />
<glyph unicode="&#xe621;" glyph-name="question-circle" d="M512 960c-282.752 0-512-229.248-512-512s229.248-512 512-512 512 229.248 512 512-229.248 512-512 512zM582.016 80h-137.408v135.68h137.28v-128.32l0.128-7.36zM727.232 562.752c-4.736-16.256-11.52-31.616-20.032-46.144s-18.752-28.224-30.72-41.28-25.152-25.472-39.488-37.376c-16-13.312-28.864-25.088-38.592-35.328s-16.384-19.2-19.776-26.688c-6.784-14.656-10.24-46.912-10.24-96.896h-115.328c0 68.352 6.656 116.352 20.032 144.064 12.992 26.624 37.248 54.784 72.768 84.48 15.36 12.608 27.392 23.872 35.904 33.6 8.576 9.728 15.040 18.432 19.456 26.112 4.48 7.68 7.232 14.848 8.256 21.504s1.472 13.632 1.472 20.736c0 13.376-2.24 25.6-6.848 36.864-4.736 11.392-11.328 21.184-19.84 29.376s-18.624 14.592-30.208 19.2c-11.584 4.672-24.64 6.912-38.976 6.912-56 0-90.176-39.104-102.528-117.376h-122.944c3.072 33.472 10.624 63.872 22.72 91.008s28.096 50.24 47.744 69.184 42.56 33.536 68.672 43.776 54.592 15.36 85.312 15.36c32.832 0 62.656-4.672 89.664-14.144 27.008-9.344 50.112-22.464 69.376-39.168 19.392-16.704 34.368-36.672 45.12-59.968s16.128-48.512 16.128-75.904c0.064-18.368-2.304-35.648-7.104-51.904z" />
<glyph unicode="&#xe622;" glyph-name="refresh" d="M1007.296 341.312c0-2.176-0.192-3.712-0.704-4.608-28.416-119.168-88-215.616-178.752-289.536-90.56-73.984-196.8-111.040-318.528-111.040-64.896 0-127.68 12.224-188.352 36.544-60.608 24.448-114.752 59.328-162.304 104.768l-86.016-86.080c-8.448-8.448-18.432-12.544-30.016-12.544s-21.568 4.096-30.016 12.544c-8.32 8.448-12.608 18.432-12.608 30.080v298.624c0 11.456 4.224 21.44 12.672 29.952 8.448 8.448 18.432 12.672 29.952 12.672h298.624c11.52 0 21.568-4.224 30.080-12.672 8.448-8.384 12.672-18.432 12.672-29.952 0-11.584-4.288-21.568-12.672-30.080l-91.392-91.392c31.552-29.248 67.264-51.968 107.392-67.968 40.064-16 81.6-24 124.736-24 59.456 0 115.136 14.528 166.592 43.328 51.648 28.864 92.864 68.672 124.032 119.296 4.928 7.552 16.64 33.536 35.264 78.016 3.584 10.176 10.176 15.296 20.096 15.296h127.936c5.824 0 10.752-2.112 14.976-6.4 4.16-4.16 6.272-9.024 6.336-14.848v0zM1024 874.56v-298.56c0-11.584-4.224-21.568-12.672-30.080-8.448-8.448-18.432-12.672-30.016-12.672h-298.688c-11.52 0-21.568 4.224-30.016 12.672s-12.544 18.432-12.544 30.080c0.064 11.52 4.288 21.504 12.672 29.952l92.032 92.032c-65.792 60.864-143.36 91.328-232.64 91.328-59.584 0-115.008-14.464-166.656-43.328-51.456-28.928-92.8-68.672-123.904-119.232-4.864-7.552-16.64-33.536-35.328-77.952-3.52-10.24-10.176-15.36-20.032-15.36h-132.736c-5.76 0-10.688 2.112-14.912 6.336-4.288 4.096-6.4 9.024-6.4 14.848v4.672c28.864 119.104 88.896 215.616 179.968 289.6 91.072 73.92 197.632 110.976 319.936 110.976 64.832 0 127.936-12.352 189.312-37.056 61.312-24.64 115.776-59.392 163.328-104.256l86.592 85.952c8.448 8.448 18.432 12.736 30.080 12.736 11.52 0 21.504-4.224 30.016-12.736 8.256-8.384 12.544-18.368 12.608-29.952v0z" />
<glyph unicode="&#xe623;" glyph-name="stop" d="M159.040 896h269.632v-896h-269.632v896zM595.328 896h269.632v-896h-269.632v896z" />
<glyph unicode="&#xe624;" glyph-name="th" d="M0 959.744h256v-256h-256v256zM384 959.744h256v-256h-256v256zM768 959.744h256v-256h-256v256zM0 576h256v-256h-256v256zM384 576h256v-256h-256v256zM768 576h256v-256h-256v256zM0 192.256h256v-256h-256v256zM384 192.256h256v-256h-256v256zM768 192.256h256v-256h-256v256z" />
<glyph unicode="&#xe625;" glyph-name="trash" d="M384 554.688v-384c0-6.144-1.92-11.328-5.952-15.296s-9.152-6.016-15.36-6.016h-42.752c-6.208 0-11.328 1.984-15.296 6.016s-6.016 9.152-6.016 15.296v384c0 6.208 2.048 11.328 6.016 15.36 3.968 3.904 9.152 6.016 15.296 6.016h42.688c6.208 0 11.392-2.048 15.36-6.016 4.096-4.032 6.016-9.152 6.016-15.36zM554.624 554.688v-384c0-6.144-1.984-11.328-6.016-15.296s-9.152-6.016-15.296-6.016h-42.688c-6.208 0-11.328 1.984-15.36 6.016s-5.952 9.216-5.952 15.296v384c0 6.208 1.984 11.328 5.952 15.36 4.032 3.904 9.152 6.016 15.36 6.016h42.688c6.208 0 11.328-2.048 15.296-6.016 4.032-4.032 6.016-9.152 6.016-15.36zM725.312 554.688v-384c0-6.144-1.984-11.328-5.952-15.296-4.032-4.032-9.216-6.016-15.424-6.016h-42.624c-6.208 0-11.392 1.984-15.296 6.016-4.032 3.968-6.016 9.152-6.016 15.296v384c0 6.208 1.984 11.328 6.016 15.36 3.968 3.968 9.152 6.016 15.296 6.016h42.624c6.272 0 11.392-2.048 15.424-6.016 3.968-4.032 5.952-9.152 5.952-15.36zM810.688 72v632.064h-597.376v-632c0-9.728 1.6-18.816 4.672-27.008 3.072-8.256 6.272-14.208 9.728-17.984 3.328-3.776 5.632-5.568 6.976-5.568h554.624c1.344 0 3.712 1.792 6.976 5.568 3.328 3.84 6.528 9.792 9.664 17.984 3.2 8.128 4.736 17.28 4.736 26.944v0zM362.624 789.312h298.624l-32 78.016c-3.072 4.032-6.784 6.4-11.328 7.36h-211.328c-4.352-0.896-8.192-3.328-11.264-7.296l-32.704-78.080zM981.376 768v-42.688c0-6.208-1.984-11.328-6.016-15.296-4.032-4.032-9.152-6.016-15.424-6.016h-63.872v-632c0-36.864-10.496-68.8-31.36-95.68-20.8-26.944-45.952-40.448-75.328-40.32h-554.688c-29.312 0-54.464 12.928-75.328 38.976-20.928 25.92-31.36 57.536-31.36 94.272v634.752h-63.936c-6.208 0-11.392 2.048-15.36 6.016-4.032 4.032-6.080 9.152-6.080 15.296v42.688c0 6.272 1.984 11.392 6.016 15.36 3.968 4.032 9.152 5.952 15.36 5.952h206.080l46.656 111.36c6.72 16.448 18.688 30.464 36.096 42.048 17.28 11.584 34.816 17.28 52.608 17.28h213.312c17.6 0 35.264-5.696 52.608-17.28s29.312-25.6 36.032-42.048l46.656-111.36h205.952c6.208 0 11.392-1.92 15.296-5.952 4.032-3.968 6.144-9.088 6.080-15.36v0z" />
<glyph unicode="&#xe626;" glyph-name="tree-close" d="M832 500.288h-267.712v267.712h-104.576v-267.712h-267.712v-104.576h267.712v-267.712h104.576v267.712h267.712zM0 960v-1024h1024v1024h-1024zM896 832v-768h-768v768h768z" />
<glyph unicode="&#xe627;" glyph-name="tree-open" d="M832 500.8h-640v-105.6h640zM0 960v-1024h1024v1024h-1024zM896 832v-768h-768v768h768z" />
<glyph unicode="&#xe628;" glyph-name="up" d="M512 811.776c11.52 0 21.504-4.672 29.952-14.016l361.472-402.304c8.384-9.408 12.672-20.416 12.672-33.344 0-12.864-4.224-23.936-12.672-33.28-8.384-9.344-18.432-14.016-29.888-14.016h-191.424v-331.392c0-12.864-4.16-23.872-12.544-33.344-8.448-9.472-18.432-14.080-30.016-14.080h-255.104c-11.456 0-21.44 4.672-29.888 14.016-8.384 9.408-12.672 20.416-12.672 33.344v331.392h-191.424c-11.52 0-21.504 4.672-29.952 14.016-8.448 9.28-12.608 20.416-12.544 33.216 0 12.864 4.224 23.936 12.544 33.344l361.472 402.304c8.448 9.408 18.496 14.144 30.016 14.144v0zM1024 885.824c0-40.96-31.36-74.176-69.952-74.176h-884.096c-38.656 0.064-69.952 33.216-69.952 74.176v0c0 40.96 31.296 74.176 69.952 74.176h884.16c38.592 0 69.888-33.216 69.888-74.176v0z" />
<glyph unicode="&#xe629;" glyph-name="upload" d="M787.776 73.792c0 10.752-3.904 19.968-11.776 27.712-7.744 7.872-16.896 11.776-27.648 11.776s-20.032-3.904-27.776-11.776c-7.744-7.744-11.776-16.896-11.776-27.712 0-10.688 4.032-20.032 11.776-27.712s17.024-11.712 27.776-11.712 19.904 3.904 27.648 11.712c7.872 7.808 11.776 17.024 11.776 27.712zM945.344 73.792c0 10.752-3.904 19.968-11.776 27.712-7.744 7.872-17.024 11.776-27.648 11.776-10.752 0-19.904-3.904-27.648-11.776-7.872-7.744-11.776-16.896-11.776-27.712 0-10.688 3.904-20.032 11.776-27.712 7.744-7.68 16.896-11.712 27.648-11.712 10.624 0 19.904 3.904 27.648 11.712 8 7.808 11.776 17.024 11.776 27.712zM1024.192 211.648v-196.864c0-16.384-5.76-30.4-17.28-41.792-11.52-11.52-25.344-17.28-41.728-17.28h-906.24c-16.512 0-30.4 5.76-41.856 17.28-11.52 11.456-17.28 25.408-17.28 41.792v196.864c0 16.512 5.76 30.464 17.28 41.856 11.52 11.52 25.344 17.28 41.856 17.28h262.72c8.704-23.040 23.104-41.856 43.456-56.704 20.288-14.656 43.072-22.144 68.032-22.144h157.568c25.024 0 47.744 7.424 68.032 22.144 20.224 14.784 34.88 33.6 43.392 56.704h262.848c16.384 0 30.4-5.76 41.856-17.28 11.52-11.456 17.344-25.408 17.344-41.856v0zM824.128 610.432c-7.104-16.384-19.136-24.576-36.352-24.576h-157.504v-275.776c0-10.624-4.032-19.968-11.776-27.776s-17.152-11.712-27.776-11.712h-157.504c-10.624 0-19.904 4.032-27.776 11.712-7.744 7.808-11.776 17.088-11.648 27.776v275.776h-157.568c-17.152 0-29.312 8.192-36.224 24.576-7.040 16-4.224 30.144 8.512 42.496l275.84 275.712c7.296 7.808 16.576 11.648 27.648 11.648 11.136 0 20.352-3.904 27.776-11.712l275.776-275.712c12.672-12.288 15.552-26.432 8.576-42.432v0z" />
<glyph unicode="&#xe62a;" glyph-name="user" d="M854.976-61.632c-227.392 0-454.656 0-681.984 0-63.488 27.52-107.456 65.344-119.872 119.872-36.096 158.72 41.92 425.728 202.752 423.936 55.040-0.768 112.384-58.496 175.168-73.792 62.080-15.168 121.344-14.656 175.040 0 75.392 20.48 106.368 76.096 175.104 73.792 202.752-7.040 286.976-500.16 73.792-543.808zM765.504 704c0-140.006-113.498-253.504-253.504-253.504s-253.504 113.498-253.504 253.504c0 140.006 113.498 253.504 253.504 253.504s253.504-113.498 253.504-253.504z" />
</font>
</defs>
</svg>
