<?xml version="1.0" standalone="no"?>
<!DOCTYPE svg PUBLIC "-//W3C//DTD SVG 1.1//EN" "http://www.w3.org/Graphics/SVG/1.1/DTD/svg11.dtd" >
<svg xmlns="http://www.w3.org/2000/svg">
<metadata>Generated by IcoMoon</metadata>
<defs>
<font id="icomoon" horiz-adv-x="1024">
<font-face units-per-em="1024" ascent="960" descent="-64" />
<missing-glyph horiz-adv-x="1024" />
<glyph unicode="&#x20;" horiz-adv-x="512" d="" />
<glyph unicode="&#xe900;" glyph-name="arrow-down" d="M145.847 286.72l339.822-339.895c14.409-14.409 38.034-14.409 52.517 0l339.968 339.895c14.409 14.409 14.409 37.961 0.073 52.443l-32.768 32.768c-14.409 14.336-37.961 14.336-52.37 0l-221.111-221.184v772.096c0 20.334-16.677 37.010-37.010 37.083l-46.007 0.073c-20.334-0.073-37.010-16.677-37.010-37.083v-772.169l-221.184 221.111c-14.409 14.336-37.961 14.336-52.37 0l-32.622-32.695c-14.336-14.409-14.336-38.034 0.073-52.443z" />
<glyph unicode="&#xe901;" glyph-name="arrow-up" d="M878.153 609.28l-339.822 339.895c-14.409 14.409-38.034 14.409-52.517 0l-339.968-339.895c-14.409-14.409-14.409-37.961-0.073-52.443l32.768-32.768c14.409-14.336 37.961-14.336 52.37 0l221.111 221.184v-772.169c0-20.334 16.677-37.010 37.010-37.083h46.007c20.334 0.073 37.010 16.677 37.010 37.083v772.169l221.184-221.111c14.409-14.336 37.961-14.336 52.37 0l32.549 32.622c14.409 14.482 14.409 38.107 0 52.517z" />
<glyph unicode="&#xe902;" glyph-name="avatar" d="M786.066 685.934c0-151.363-122.704-274.066-274.066-274.066s-274.066 122.704-274.066 274.066c0 151.363 122.704 274.066 274.066 274.066s274.066-122.704 274.066-274.066zM512 392.777c-252.27 0-456.777-204.581-456.777-456.777h913.554c0 252.197-204.507 456.777-456.777 456.777z" />
<glyph unicode="&#xe903;" glyph-name="book" d="M223.963 0.219c-35.328 0-64 28.672-64 64s28.672 64 64 64h704v64h-704c-70.656 0-128-57.344-128-128s57.344-128 128-128h704v62.903l-704 1.097zM223.963 959.781c-70.656 0-128-57.344-128-128v-767.561c0 70.656 57.344 128 128 128h704v767.561h-704zM754.249 544.329h-407.186c-20.187 0-36.571 16.384-36.571 36.571s16.384 36.571 36.571 36.571h407.186c20.187 0 36.571-16.384 36.571-36.571s-16.311-36.571-36.571-36.571zM754.249 734.281h-407.186c-20.187 0-36.571 16.384-36.571 36.571s16.384 36.571 36.571 36.571h407.186c20.187 0 36.571-16.384 36.571-36.571s-16.311-36.571-36.571-36.571z" />
<glyph unicode="&#xe904;" glyph-name="btn-off" d="M976.091 782.117h-928.329c-26.405 0-47.762-21.358-47.762-47.762v-572.709c0-26.331 21.358-47.762 47.762-47.762h928.549c26.405 0 47.762 21.358 47.762 47.762v572.709c-0.073 26.405-21.431 47.762-47.982 47.762zM833.024 201.874c0-13.093-10.752-23.845-23.845-23.845h-721.189c-13.166 0-23.845 10.752-23.845 23.845v492.178c0 13.239 10.606 23.845 23.845 23.845h721.189c13.093 0 23.845-10.606 23.845-23.845v-492.178zM343.918 551.863c-24.137 24.942-56.393 37.449-96.695 37.449-22.309 0-41.911-3.584-58.88-10.752-12.8-5.413-24.576-13.605-35.328-24.722-10.679-10.971-19.163-23.552-25.381-37.522-8.265-18.871-12.507-42.203-12.507-69.998 0-43.593 11.995-77.678 35.986-102.473 23.918-24.869 56.247-37.23 96.841-37.23 40.155 0 72.192 12.507 96.256 37.376s35.986 59.465 35.986 103.57c0 44.471-12.142 79.287-36.279 104.302zM247.808 369.737c-17.335 0-31.232 6.071-42.569 18.651-11.41 12.946-17.189 32.987-17.189 59.685 0 27.282 5.705 47.397 16.823 59.977 10.752 12.069 24.869 17.993 43.008 17.993s32.11-5.778 42.789-17.627c10.971-12.288 16.53-32.329 16.53-59.465-0.073-27.575-5.851-47.982-17.189-60.635-11.118-12.507-24.869-18.578-42.203-18.578zM414.647 311.296h65.317v103.936h103.936v58.441h-103.936v52.37h105.253v58.661h-170.569zM615.643 311.296h65.097v103.936h104.229v58.441h-104.229v52.37h104.887v58.661h-169.984z" />
<glyph unicode="&#xe905;" glyph-name="btn-on" d="M976.311 782.117h-928.622c-26.331 0-47.762-21.358-47.762-47.689v-572.782c0-26.331 21.431-47.689 47.762-47.689h928.768c26.185 0 47.616 21.358 47.616 47.689v572.782c-0.073 26.331-21.65 47.689-47.762 47.689zM960 201.728c0-13.093-10.752-23.845-23.771-23.845h-721.481c-13.093 0-23.845 10.752-23.845 23.845v492.544c0 13.166 10.752 23.845 23.845 23.845h721.408c13.019-0.073 23.771-10.679 23.771-23.918v-492.471zM535.698 551.79c-10.313 10.679-22.382 18.578-35.621 24.649-17.774 8.265-37.961 12.873-61.074 12.873-22.309 0-41.838-3.511-58.953-10.825-12.8-5.266-24.649-13.531-35.255-24.722-10.679-10.971-19.163-23.479-25.381-37.376-8.485-18.871-12.581-42.203-12.581-70.071 0-43.52 11.995-77.605 36.059-102.4 23.991-24.869 56.32-37.157 96.987-37.157 40.155 0 72.192 12.361 96.183 37.376 21.504 22.309 32.768 52.663 35.109 90.258 0.219 4.389 0.951 8.558 0.951 13.239-0.073 44.398-12.215 79.214-36.425 104.155zM439.589 369.883c-9.728 0-18.725 2.779-28.453 8.558-6.363 3.73-10.898 6.29-14.263 10.094-11.483 12.727-17.335 32.768-17.335 59.685 0 27.282 5.632 47.323 16.75 59.831 10.825 12.142 24.869 18.139 43.081 18.139 8.411 0 16.165-1.39 23.625-4.315l2.048-0.805h0.146c1.17-0.731 16.677-12.069 17.115-12.581 11.045-12.215 16.53-32.329 16.53-59.538 0.073-27.575-5.705-48.055-17.042-60.782-11.045-12.288-24.869-18.286-42.203-18.286zM781.239 412.965l-104.302 171.666h-61.294v-273.408h61.294v168.814l100.059-168.814h64.951v273.408h-60.709z" />
<glyph unicode="&#xe906;" glyph-name="building" d="M642.999 896c-30.793 38.693-77.678 64-130.999 64s-100.206-25.307-130.999-64h-253.001v-960h768v960h-253.001zM512 927.963c17.701 0 32.037-14.336 32.037-32.037s-14.336-31.89-32.037-31.89c-17.627 0-32.037 14.336-32.037 32.037s14.409 31.89 32.037 31.89zM832 0h-640v832h157.403c-3.218-12.873-5.413-26.112-5.413-40.009h336.018c0 13.897-2.121 27.136-5.266 40.009h157.257v-832zM304.859 381.513v351.963h-64v-415.963h542.281v64zM240.859 248.027h542.281v-64h-542.281v64zM240.859 128h542.281v-64h-542.281v64zM495.909 566.638l118.711-118.784 157.623 157.623-45.275 45.275-112.347-112.347-118.711 118.711-108.983-108.983-36.864 36.864-45.202-45.202 82.066-82.139z" />
<glyph unicode="&#xe907;" glyph-name="charts" d="M64 0v960h-64v-1024h1024v64zM601.527 376.905c-8.485 0-16.603 3.365-22.601 9.362l-163.401 163.328-90.697-90.624c-12.507-12.507-32.768-12.507-45.275 0l-138.971 138.971c-12.507 12.507-12.507 32.768 0 45.275s32.768 12.507 45.275 0l116.297-116.297 90.77 90.697c12.507 12.507 32.768 12.507 45.275 0l163.328-163.401 295.863 295.936c12.507 12.507 32.768 12.507 45.275 0s12.507-32.768 0-45.275l-318.537-318.683c-5.998-5.925-14.117-9.289-22.601-9.289zM140.654 64v391.68c0 0 32.768 12.507 45.275 0l116.297-116.297 90.77 90.624c12.507 12.507 32.768 12.507 45.275 0l163.255-163.401 295.863 295.936c12.507 12.507 45.275 0 45.275 0v-498.542h-802.011z" />
<glyph unicode="&#xe908;" glyph-name="close" d="M1010.103 18.651l-68.754-68.754c-9.289-9.289-20.699-13.97-34.377-13.97-13.605 0.073-25.088 4.681-34.377 14.043l-360.594 360.594-360.667-360.521c-9.289-9.435-20.773-13.97-34.377-13.97-13.605-0.073-25.015 4.535-34.304 13.897l-68.754 68.754c-9.289 9.216-13.97 20.773-13.897 34.304 0 13.605 4.535 25.088 13.897 34.523l360.521 360.521-360.448 360.667c-9.289 9.143-13.97 20.626-13.97 34.231s4.681 25.088 13.97 34.377l68.754 68.754c9.289 9.289 20.773 13.97 34.45 13.97s25.088-4.681 34.377-13.897l360.667-360.667 360.521 360.667c9.289 9.216 20.773 13.897 34.377 13.897s25.088-4.681 34.377-13.97l68.754-68.754c9.070-9.289 13.751-20.773 13.751-34.377s-4.681-25.088-13.97-34.231l-360.521-360.667 360.521-360.521c9.289-9.435 13.97-20.699 13.97-34.523 0.073-13.605-4.608-25.088-13.897-34.377z" />
<glyph unicode="&#xe909;" glyph-name="close-circle" d="M765.952 297.253c0 11.63-4.242 21.504-12.581 29.989l-120.759 120.759 120.686 120.613c8.411 8.411 12.581 18.432 12.581 29.989 0 12.069-4.242 22.235-12.581 30.647l-60.050 59.977c-8.485 8.411-18.651 12.654-30.793 12.654-11.557 0-21.431-4.242-29.989-12.654l-120.466-120.613-120.613 120.686c-8.558 8.411-18.505 12.654-30.062 12.654-11.995 0-22.309-4.242-30.647-12.654l-59.977-59.977c-8.411-8.485-12.654-18.725-12.654-30.647 0-11.557 4.242-21.431 12.654-29.989l120.686-120.686-120.686-120.686c-8.411-8.411-12.654-18.359-12.654-29.989 0-11.995 4.242-22.235 12.654-30.72l59.977-59.977c8.411-8.411 18.651-12.581 30.647-12.581 11.557 0 21.504 4.169 29.989 12.581l120.686 120.686 120.613-120.686c8.485-8.411 18.432-12.581 29.989-12.581 12.069 0 22.309 4.169 30.793 12.581l60.050 59.977c8.265 8.485 12.507 18.798 12.507 30.647zM1024 448c0-92.891-22.894-178.542-68.608-256.951-45.861-78.555-107.886-140.654-186.295-186.441-78.629-45.714-164.206-68.535-257.097-68.535s-178.542 22.747-257.097 68.535c-78.409 45.787-140.507 107.886-186.295 186.441-45.714 78.409-68.608 164.059-68.608 256.951s22.894 178.542 68.681 257.024 107.813 140.581 186.295 186.295 164.133 68.608 257.024 68.608 178.469-22.894 257.097-68.681c78.409-45.787 140.507-107.813 186.295-186.295 45.641-78.409 68.608-164.059 68.608-256.951z" />
<glyph unicode="&#xe90a;" glyph-name="data-decrease" d="M131.657 614.546c-32.183 0-58.514-26.331-58.514-58.514v-216.064c0-32.183 26.331-58.514 58.514-58.514h760.686c32.183 0 58.514 26.331 58.514 58.514v216.064c0 32.183-26.331 58.514-58.514 58.514h-760.686z" />
<glyph unicode="&#xe90b;" glyph-name="data-increase" d="M383.342-9.801c0-31.817 26.039-57.929 57.929-57.929h141.605c31.817 0 57.929 26.039 57.929 57.929v915.602c0 31.817-26.039 57.929-57.929 57.929h-141.678c-31.817 0-57.929-26.039-57.929-57.929v-915.602zM57.929 318.245c-31.89 0-57.929 26.039-57.929 57.929v143.653c0 31.817 26.039 57.929 57.929 57.929h908.215c31.817 0 57.856-26.039 57.856-57.929v-143.726c0-31.817-26.039-57.929-57.929-57.929h-908.142z" />
<glyph unicode="&#xe90c;" glyph-name="down" d="M933.669 749.129l-421.669-421.669-421.669 421.742-90.331-90.405 512-512 512 512-90.331 90.331z" />
<glyph unicode="&#xe90d;" glyph-name="download" d="M787.749 111.909c0 10.094-3.877 19.017-11.776 26.331-7.753 7.461-17.042 11.045-27.721 11.045-10.606 0-19.895-3.877-27.721-11.045-7.753-7.387-11.776-16.091-11.776-26.331 0-10.094 4.023-18.871 11.776-26.258s17.042-11.045 27.721-11.045c10.606-0.146 19.895 3.73 27.721 11.045 7.899 7.314 11.776 16.165 11.776 26.258zM945.371 111.909c0 10.094-3.877 19.017-11.776 26.331-7.753 7.461-16.896 11.045-27.721 11.045-10.606 0-19.895-3.877-27.721-11.045-7.899-7.387-11.776-16.091-11.776-26.331 0-10.094 3.877-18.871 11.776-26.258 7.753-7.387 17.042-11.045 27.721-11.045 10.752-0.146 19.895 3.73 27.721 11.045 7.753 7.314 11.776 16.165 11.776 26.258zM1024 242.615v-186.661c0-15.579-5.778-28.891-17.262-39.717-11.557-10.898-25.381-16.238-41.765-16.238h-905.874c-16.384 0-30.354 5.339-41.765 16.238s-17.335 24.21-17.335 39.79v186.661c0 15.579 5.778 28.745 17.262 39.643 11.557 10.898 25.307 16.384 41.765 16.384h286.208l83.237-79.433c23.698-21.797 51.712-32.622 83.675-32.622 32.037 0 59.977 10.825 83.749 32.622l83.675 79.433h285.696c16.384 0 30.354-5.413 41.765-16.384 11.337-11.045 16.969-24.137 16.969-39.717v0zM824.027 574.61c6.949-16.091 4.096-29.623-8.631-40.887l-275.675-261.339c-7.314-7.387-16.603-11.118-27.721-11.118-11.045 0-20.187 3.877-27.721 11.191l-275.675 261.339c-12.727 11.191-15.579 24.795-8.631 40.814 6.949 15.067 19.163 22.674 36.279 22.674h157.477v261.413c0 10.021 3.95 18.798 11.776 26.331 7.753 7.387 16.969 10.971 27.648 10.971h157.477c10.606 0 19.895-3.73 27.721-11.045 7.899-7.461 11.776-16.165 11.776-26.331v-261.413h157.477c17.262 0.073 29.403-7.534 36.425-22.601v0z" />
<glyph unicode="&#xe90e;" glyph-name="edit" d="M1024 714.679c0-23.918-8.411-44.178-25.088-60.855l-112.201-112.201-281.161 281.234 112.201 111.543c16.311 17.115 36.498 25.6 60.782 25.6 23.771 0 44.325-8.558 61.513-25.673l158.866-158.208c16.75-17.481 25.015-38.034 25.088-61.44v0zM562.322 779.483l-562.322-562.322v-281.161h281.234l562.395 562.395-281.307 281.088zM249.856 11.703h-82.139v92.014h-92.014v82.066l486.619 486.619 69.559-69.632-426.35-426.277c-3.877-3.877-5.632-8.485-5.632-13.824 0-11.849 5.925-17.92 17.774-17.92 5.413 0 10.021 1.829 13.824 5.705l426.423 426.423 78.482-78.482-486.546-486.693z" />
<glyph unicode="&#xe90f;" glyph-name="exclamation-circle" d="M512 960c-282.77 0-512-229.23-512-512 0-282.843 229.23-512 512-512s512 229.157 512 512c0 282.77-229.23 512-512 512zM576 64h-128v128h128v-128zM596.041 640l-20.041-320h-128l-19.968 320-11.995 192h192.073l-12.069-192z" />
<glyph unicode="&#xe910;" glyph-name="exit" d="M984.649 408.649c0-64-12.581-125.147-37.595-183.369s-58.661-108.471-100.937-150.747-92.526-75.922-150.821-101.010c-58.222-25.015-119.296-37.522-183.296-37.522s-125.147 12.507-183.369 37.522c-58.222 25.015-108.471 58.661-150.747 101.010-42.277 42.277-75.922 92.526-101.010 150.747-25.015 58.222-37.522 119.369-37.522 183.369 0 74.606 16.53 145.042 49.591 211.090 32.987 65.975 79.506 121.417 139.41 166.107 17.627 13.093 37.23 18.286 58.734 15.433s38.693-13.166 51.346-30.793c13.093-17.189 18.139-36.571 15.141-58.149s-13.166-38.912-30.427-52.005c-40.229-30.427-71.314-67.584-93.257-111.47s-32.914-90.624-32.914-140.288c0-42.715 8.265-83.383 24.869-122.149s39.131-72.338 67.365-100.571c28.306-28.306 61.806-50.761 100.571-67.365s79.506-24.942 122.149-24.942 83.383 8.338 122.149 24.942c38.766 16.603 72.411 39.131 100.645 67.365 28.379 28.306 50.761 61.806 67.365 100.645 16.603 38.766 24.869 79.506 24.869 122.149 0 49.664-10.971 96.475-32.914 140.288-21.87 43.886-52.955 81.042-93.184 111.397-17.189 13.093-27.429 30.501-30.501 52.005-3.072 21.577 1.902 40.96 15.141 58.149 12.727 17.627 29.989 27.941 51.712 30.793 21.797 2.853 41.253-2.267 58.441-15.433 59.831-44.69 106.35-100.133 139.41-166.181s49.591-136.411 49.591-211.017l-0.219-0.073v0.073h0.219zM590.702 881.225v-393.874c0-21.285-7.826-39.79-23.406-55.442-15.579-15.433-34.085-23.259-55.369-23.333-21.285 0-39.79 7.753-55.369 23.333-15.653 15.653-23.406 34.085-23.406 55.442v393.874c0 21.358 7.826 39.79 23.406 55.369s34.011 23.406 55.369 23.406c21.358 0 39.79-7.753 55.369-23.406s23.406-34.085 23.406-55.369z" />
<glyph unicode="&#xe911;" glyph-name="flow" d="M802.085 320.146h-204.946l-256.146-256.146h-340.992v-128h393.947l256.219 256.219h151.918v-71.753l221.915 135.753-221.915 135.68zM458.167 576.146h343.918v-71.753l221.915 135.753-221.915 135.753v-71.826h-290.816l-256 255.927h-255.269v-128h202.313zM597.285 343.698l204.8 104.302-204.8 104.229v-40.229h-597.285v-128h597.285z" />
<glyph unicode="&#xe912;" glyph-name="frame" d="M0 0c0-35.401 28.599-64 64-64h896c35.401 0 64 28.599 64 64v628.151h-1024v-628.151zM649.947 501.614h300.69v-458.752h-300.69v458.752zM73.947 501.614h512v-64h-512c0 0 0 64 0 64zM73.947 370.761h512v-64h-512c0 0 0 64 0 64zM73.947 241.591h512v-64h-512c0 0 0 64 0 64zM73.947 110.738h512v-64h-512c0 0 0 64 0 64zM1024 896c0 35.401-28.599 64-64 64h-896c-35.401 0-64-28.599-64-64v-203.849h1024v203.849zM713.289 754.103h-640v128h640v-128zM950.638 754.103h-192v128h192v-128z" />
<glyph unicode="&#xe913;" glyph-name="gear" d="M542.793 885.321l12.069-79.141 6.875-45.568 43.593-14.263c17.92-5.778 34.523-12.581 49.298-20.114l41.691-21.431 99.547 74.971c20.773-19.749 35.694-34.816 46.299-46.007-2.779-3.657-5.925-7.607-9.435-11.995-17.627-22.309-29.769-38.181-38.181-50.030l-26.551-37.157 21.211-40.594c9.435-18.213 16.896-36.133 22.162-53.029l13.97-44.617 124.27-19.017v-61.806l-122.88-18.651-14.994-42.203c-7.168-20.334-14.263-37.23-21.211-49.957l-21.943-40.667 26.405-37.669c12.069-17.335 28.453-38.912 49.225-64.805-8.631-9.289-19.749-20.773-34.377-35.255-4.535-4.462-8.704-8.338-12.215-11.776l-61.294 47.982-38.034 29.623-42.642-22.235c-15.799-8.338-32.11-15.067-48.64-20.261l-46.153-14.702-5.705-47.762c-3.95-34.231-7.461-58.88-10.313-76.654h-63.781l-12.069 79.214-6.875 45.349-43.593 14.336c-17.993 5.998-34.597 12.8-49.225 20.187l-41.765 21.431-37.449-28.306-61.659-46.885c-20.919 19.675-35.986 34.67-46.665 46.007 2.779 3.657 5.998 7.68 9.582 12.069 17.627 22.455 29.696 38.254 37.961 49.81l27.136 37.815-22.089 41.253c-9.435 17.408-16.53 34.67-21.285 50.981l-13.093 46.373-47.689 7.095-77.678 11.41v61.733l78.482 11.849 46.373 6.875 13.824 44.91c4.901 15.799 11.703 31.89 20.261 47.543l22.162 40.667-26.624 37.961c-13.312 19.017-29.403 40.375-48.713 64.585 8.338 8.997 19.31 20.261 33.646 34.523 4.535 4.389 8.704 8.338 12.215 11.776l61.806-47.982 38.107-29.477 42.569 22.455c15.506 8.046 31.89 14.921 48.567 20.187l45.861 14.629 5.632 47.835c4.023 34.011 7.461 58.734 10.313 76.654h63.707zM585.947 959.927h-148.041c-12.8 0-20.773-6.144-23.991-18.651-5.778-22.089-12.215-63.415-19.383-123.904-20.699-6.583-41.033-15.067-60.562-25.381l-92.087 71.387c-5.705 4.389-11.483 6.729-17.262 6.729-9.801 0-30.793-15.872-62.976-47.689-32.256-31.817-54.199-55.662-65.682-71.607-4.023-5.851-5.998-10.971-5.998-15.36 0-5.339 2.267-10.679 6.656-16.018 29.769-36.059 53.541-66.706 71.387-92.014-11.118-20.48-19.749-40.887-26.039-61.294l-123.977-18.798c-4.901-0.878-9.070-3.73-12.727-8.704-3.438-4.827-5.266-9.947-5.266-15.287v-148.041c0-5.778 1.829-10.971 5.339-15.653 3.584-4.608 8.265-7.461 13.97-8.338l122.075-17.993c6.217-21.797 15.36-43.813 27.282-65.975-7.973-11.045-19.968-26.77-35.986-46.958-16.091-20.114-27.429-34.962-34.085-44.251-3.511-4.901-5.339-10.021-5.339-15.36 0-5.851 1.463-10.971 4.608-15.36 17.408-23.991 53.979-61.221 110.080-111.909 4.827-4.901 10.459-7.314 16.677-7.314 6.583 0 12.142 1.829 16.603 5.925l93.989 71.387c18.139-9.435 38.254-17.481 59.977-24.722l18.651-122.661c0.366-5.705 2.926-10.533 7.607-14.409 4.681-3.803 10.167-5.559 16.311-5.559h148.114c12.946 0 20.846 6.217 24.064 18.651 5.705 22.235 12.142 63.488 19.237 124.050 20.919 6.583 41.179 15.067 60.635 25.307l92.087-71.973c6.144-4.023 12.069-5.998 17.408-5.998 9.728 0 30.574 15.799 62.537 47.323 32.037 31.525 54.126 55.515 66.121 71.973 3.95 4.389 5.998 9.509 5.998 15.36 0 5.778-2.267 11.337-6.729 16.603-32.037 39.058-55.735 69.778-71.314 91.941 8.997 16.53 17.554 36.718 25.966 60.635l123.392 18.651c5.339 0.878 9.801 3.803 13.385 8.777 3.584 4.827 5.339 9.947 5.339 15.36v147.822c0 5.851-1.755 10.971-5.266 15.726-3.584 4.681-8.338 7.461-14.043 8.338l-122.149 18.651c-6.583 21.358-15.653 43.081-27.282 65.243 7.973 11.191 20.041 26.843 36.059 47.031 16.091 20.187 27.355 34.962 34.011 44.251 3.438 4.974 5.339 10.094 5.339 15.433 0 6.144-1.682 10.971-4.681 14.555-16.091 22.747-52.809 60.489-110.153 113.371-5.339 4.389-10.898 6.656-16.603 6.656-6.656 0-12.069-1.975-16.091-5.851l-94.647-71.387c-18.213 9.362-38.327 17.554-60.050 24.722l-18.505 122.734c-0.439 5.632-2.926 10.533-7.607 14.19-4.754 3.877-10.24 5.632-16.384 5.632v0zM511.927 554.35c58.587 0 106.277-47.689 106.277-106.35s-47.543-106.277-106.277-106.277-106.203 47.689-106.203 106.277 47.616 106.35 106.203 106.35zM511.927 628.955c-99.986 0-180.955-81.042-180.955-180.955s81.115-180.955 181.029-180.955c99.986 0 181.029 81.042 181.029 180.955s-80.969 180.955-181.102 180.955v0z" />
<glyph unicode="&#xe914;" glyph-name="gear-circle" d="M682.642 447.927c0 47.104-16.603 87.333-49.957 120.686s-73.582 49.883-120.686 49.883-87.333-16.603-120.686-49.883c-33.353-33.353-49.883-73.582-49.883-120.686s16.603-87.333 49.883-120.686c33.353-33.353 73.582-49.883 120.686-49.883s87.333 16.603 120.686 49.883c33.28 33.353 49.957 73.582 49.957 120.686zM1024 520.558v-147.968c0-5.339-1.755-10.459-5.339-15.36-3.584-4.827-7.973-7.753-13.312-8.631l-123.392-18.651c-8.485-23.991-17.115-44.251-25.966-60.709 15.579-22.235 39.278-52.955 71.314-91.941 4.462-5.339 6.729-10.898 6.729-16.677 0-5.851-2.048-10.971-6.071-15.36-11.995-16.457-34.011-40.448-65.975-71.973-32.037-31.525-52.955-47.397-62.683-47.397-5.339 0-11.118 2.048-17.335 6.071l-92.014 71.973c-19.529-10.24-39.717-18.651-60.709-25.307-7.022-60.489-13.605-101.815-19.31-123.977-3.145-12.361-11.191-18.651-24.064-18.651h-147.895c-6.217 0-11.63 1.902-16.311 5.632-4.681 3.803-7.241 8.558-7.68 14.336l-18.725 122.661c-21.797 7.168-41.765 15.36-60.050 24.722l-93.989-71.387c-4.389-4.023-9.947-5.925-16.603-5.925-6.217 0-11.849 2.414-16.603 7.314-56.027 50.688-92.672 87.991-110.007 111.982-3.145 4.389-4.681 9.582-4.681 15.36 0 5.339 1.829 10.459 5.339 15.287 6.729 9.362 17.993 24.137 34.011 44.325 16.018 20.261 28.014 35.986 35.986 47.031-11.995 22.235-21.065 44.251-27.355 65.975l-122.002 18.066c-5.778 0.878-10.459 3.657-14.043 8.338-3.438 4.608-5.266 9.801-5.266 15.653v148.041c0 5.266 1.829 10.386 5.339 15.287 3.584 4.901 7.826 7.826 12.654 8.704l123.977 18.651c6.217 20.407 14.848 40.887 25.966 61.294-17.701 25.381-41.472 55.954-71.314 92.014-4.462 5.339-6.729 10.606-6.729 16.018 0 4.389 1.975 9.509 5.998 15.36 11.483 15.945 33.426 39.863 65.682 71.68s53.248 47.689 63.049 47.689c5.778 0 11.557-2.267 17.262-6.729l92.014-71.387c19.602 10.24 39.863 18.725 60.709 25.381 7.095 60.416 13.605 101.815 19.383 123.977 3.072 12.361 11.118 18.651 23.991 18.651h148.041c6.217 0 11.63-1.829 16.311-5.632s7.168-8.558 7.68-14.336l18.651-122.661c21.797-7.168 41.765-15.36 60.050-24.722l94.647 71.387c4.023 4.023 9.362 5.925 16.091 5.925 5.778 0 11.337-2.267 16.603-6.656 57.417-52.955 93.989-90.697 110.007-113.371 3.072-3.584 4.681-8.411 4.681-14.629 0-5.339-1.755-10.459-5.339-15.36-6.656-9.362-17.993-24.137-34.011-44.325-16.018-20.261-28.014-35.913-35.986-46.958 11.557-22.235 20.699-44.032 27.355-65.317l122.075-18.651c5.778-0.878 10.459-3.73 14.043-8.338 3.365-4.681 5.12-9.947 5.12-15.799z" />
<glyph unicode="&#xe915;" glyph-name="gears" d="M477.915 448.293c0 37.669-13.312 69.925-40.009 96.549s-58.88 40.009-96.549 40.009-69.925-13.312-96.549-40.009c-26.697-26.697-40.009-58.88-40.009-96.549s13.312-69.998 40.009-96.622c26.624-26.697 58.88-40.009 96.549-40.009s69.851 13.312 96.549 40.009 40.009 58.953 40.009 96.622zM887.442 175.25c0 18.505-6.729 34.45-20.187 47.909-13.531 13.531-29.55 20.187-47.982 20.187-18.505 0.073-34.597-6.729-47.982-20.187-13.531-13.531-20.261-29.55-20.261-47.909 0-18.798 6.729-34.962 20.114-48.274s29.403-20.114 48.274-20.114c18.725 0 34.962 6.729 48.274 20.114 13.093 13.239 19.749 29.403 19.749 48.274zM887.442 721.335c0 18.505-6.729 34.523-20.187 47.982-13.605 13.458-29.55 20.261-48.055 20.334-18.505 0-34.597-6.802-47.982-20.261-13.531-13.531-20.261-29.623-20.261-47.982 0-18.871 6.729-34.962 20.114-48.274s29.403-20.041 48.274-20.041c18.725 0 34.962 6.656 48.274 20.041 13.166 13.312 19.822 29.33 19.822 48.201zM682.715 496.859v-98.743c0-3.584-1.39-6.949-3.657-10.386-2.56-3.365-5.486-5.266-8.631-5.559l-82.725-12.873c-4.023-12.434-9.582-26.039-17.042-40.521 12.069-17.042 28.014-37.449 47.982-61.294 2.414-3.584 3.73-7.095 3.73-10.679 0-4.169-1.39-7.68-3.73-10.167-8.265-10.679-22.894-26.551-44.032-47.762-21.211-21.138-35.182-31.671-41.838-31.671-3.877 0-7.607 1.243-11.191 3.657l-61.294 47.982c-13.166-6.729-26.843-12.215-41.106-16.53-3.877-38.4-8.046-65.975-12.288-82.651-2.487-8.558-7.826-12.873-16.018-12.873h-99.182c-3.877 0-7.461 1.39-10.752 4.096-3.145 2.706-4.974 5.778-5.339 9.435l-12.288 81.701c-12.069 3.584-25.454 9.070-40.009 16.53l-62.83-47.762c-2.487-2.487-6.071-3.657-10.679-3.657-3.877 0-7.607 1.39-11.191 4.169-51.2 47.323-76.8 75.703-76.8 85.358 0 3.145 1.317 6.583 3.73 10.094 3.584 4.974 10.825 14.409 21.87 28.306 11.118 13.824 19.456 24.722 25.234 32.549-8.338 15.653-14.482 30.281-18.798 43.739l-81.042 12.8c-3.584 0.366-6.583 2.048-9.143 5.12-2.414 3.072-3.657 6.437-3.657 10.386v98.743c0 3.584 1.317 7.022 3.73 10.386 2.487 3.365 5.339 5.266 8.558 5.632l82.725 12.873c3.877 12.434 9.582 25.893 17.042 40.521-12.142 17.042-28.16 37.449-48.128 61.294-2.487 3.877-3.657 7.461-3.657 10.679 0 4.169 1.243 7.826 3.73 10.679 7.826 10.679 22.382 26.478 43.666 47.397 21.285 20.992 35.401 31.525 42.203 31.525 3.877 0 7.607-1.317 11.191-3.73l61.294-48.055c12.069 6.363 25.746 11.995 41.033 17.042 3.95 38.473 8.046 65.755 12.288 82.139 2.56 8.558 7.899 12.873 16.018 12.873h99.182c3.95 0 7.461-1.39 10.679-4.023s4.974-5.778 5.413-9.362l12.215-81.627c12.069-3.584 25.381-9.070 40.009-16.53l62.903 47.47c2.853 2.487 6.363 3.73 10.679 3.73 3.95 0 7.607-1.39 11.191-4.242 51.2-47.25 76.8-75.703 76.8-85.358 0-3.145-1.39-6.583-3.877-10.094-4.096-5.705-11.63-15.287-22.162-28.818-10.752-13.531-18.725-24.21-24.21-31.963 8.119-17.042 14.19-31.671 18.139-43.739l81.115-12.215c3.584-0.731 6.437-2.633 8.997-5.632 2.487-3.072 3.657-6.51 3.657-10.386 0 0 0.293 0 0.293 0zM1024 212.48v-74.606c0-5.778-26.478-11.264-79.506-16.677-4.169-9.509-9.582-18.871-15.945-27.721 18.066-40.155 27.209-64.731 27.209-73.582 0-1.39-0.658-2.633-2.048-3.73-43.447-25.307-65.463-37.888-66.194-37.888-2.779 0-10.898 8.338-24.43 24.942-13.531 16.896-22.821 28.891-27.867 36.352-7.095-0.731-12.361-1.097-15.945-1.097s-8.997 0.366-16.091 1.097c-4.827-7.461-14.117-19.529-27.721-36.352-13.458-16.603-21.65-24.942-24.576-24.942-0.658 0-22.674 12.507-66.048 37.888-1.39 1.097-2.121 2.341-2.121 3.73 0 8.85 9.143 33.499 27.209 73.582-6.363 8.85-11.776 18.066-15.945 27.721-53.029 5.486-79.579 10.971-79.579 16.677v74.606c0 5.705 26.551 11.264 79.506 16.457 4.608 10.313 9.874 19.675 15.945 27.867-17.993 40.155-27.209 64.658-27.209 73.582 0 1.39 0.731 2.633 2.121 3.803 1.39 0.658 7.607 4.169 18.725 10.606 10.898 6.363 21.431 12.434 31.305 18.139 10.021 5.632 15.287 8.558 16.091 8.558 2.779 0 10.971-8.265 24.43-24.795 13.531-16.53 22.894-28.453 27.867-35.986 7.095 0.731 12.434 1.024 15.945 1.024 3.584 0 8.997-0.293 15.945-1.024 18.213 25.161 34.597 45.129 49.225 59.758l3.145 1.024c1.39 0 23.479-12.361 66.121-37.303 1.39-1.097 2.048-2.341 2.048-3.803 0-8.923-9.143-33.426-27.209-73.509 6.144-8.265 11.337-17.408 15.945-27.794 53.248-5.266 79.653-10.898 79.653-16.603v0zM1024 758.711v-74.679c0-5.705-26.478-11.191-79.506-16.53-4.169-9.655-9.582-18.871-15.945-27.721 18.066-40.229 27.209-64.731 27.209-73.655 0-1.39-0.658-2.633-2.048-3.73-43.447-25.234-65.463-37.888-66.194-37.888-2.779 0-10.898 8.338-24.43 25.161-13.531 16.677-22.821 28.745-27.867 36.279-7.095-0.731-12.361-1.024-15.945-1.024s-8.997 0.293-16.091 1.024c-4.827-7.461-14.117-19.529-27.721-36.279-13.458-16.75-21.65-25.161-24.576-25.161-0.658 0-22.674 12.581-66.048 37.888-1.39 1.17-2.121 2.341-2.121 3.73 0 8.923 9.143 33.426 27.209 73.655-6.363 8.85-11.776 18.066-15.945 27.721-52.955 5.339-79.506 10.825-79.506 16.53v74.679c0 5.705 26.551 11.191 79.506 16.53 4.608 10.313 9.874 19.602 15.945 27.721-17.993 40.155-27.209 64.731-27.209 73.582 0 1.39 0.731 2.706 2.121 3.73 1.39 0.731 7.607 4.242 18.725 10.752 10.898 6.363 21.431 12.434 31.305 18.139 10.021 5.632 15.287 8.558 16.091 8.558 2.779 0 10.971-8.265 24.43-24.795 13.531-16.457 22.894-28.526 27.867-35.986 7.095 0.731 12.434 1.097 15.945 1.097 3.584 0 8.997-0.366 15.945-1.097 18.213 25.234 34.597 45.129 49.225 59.685l3.145 1.097c1.39 0 23.479-12.434 66.121-37.376 1.39-1.097 2.048-2.341 2.048-3.73 0-8.923-9.143-33.426-27.209-73.582 6.144-8.119 11.337-17.408 15.945-27.721 53.175-5.413 79.579-10.971 79.579-16.603v0z" />
<glyph unicode="&#xe916;" glyph-name="globe" d="M902.071 779.191c-13.897 16.384-28.965 31.598-44.837 46.080-46.811 42.862-101.522 77.093-161.865 100.279-29.403 11.337-59.977 20.041-91.721 25.819-29.769 5.413-60.27 8.631-91.648 8.631-31.89 0-63.049-3.291-93.33-8.923-32.329-5.925-63.488-14.994-93.33-26.697-59.099-23.186-112.64-56.978-158.647-99.109-15.799-14.482-30.866-29.769-44.763-46.080-75.922-89.307-121.929-204.8-121.929-331.191 0-131.072 49.664-250.295 130.633-340.846 14.263-15.945 29.477-31.086 45.641-45.129 43.813-38.107 94.062-68.827 148.992-90.405 29.842-11.703 61.001-20.773 93.33-26.697 30.354-5.632 61.513-8.923 93.403-8.923 31.378 0 61.879 3.218 91.721 8.631 31.744 5.778 62.318 14.482 91.721 25.746 56.247 21.65 107.593 52.736 152.283 91.575 16.165 14.043 31.305 29.184 45.641 45.129 80.969 90.624 130.633 209.847 130.633 340.919 0 126.391-46.007 241.883-121.929 331.191zM418.67 886.053c5.851 1.243 11.849 2.048 17.774 3.072-2.926-1.755-5.851-3.584-8.85-5.339-62.391-38.473-116.224-89.454-157.111-150.162-20.992 13.531-40.667 28.818-59.099 45.568 57.563 52.297 128.512 90.112 207.287 106.862zM166.693 733.111c22.235-20.407 46.153-38.839 71.753-55.077-30.354-60.197-49.006-127.122-53.394-197.998h-119.442c6.802 95.671 43.374 183.296 101.083 253.074zM65.609 415.963h119.442c4.754-76.727 25.819-148.992 60.709-212.919-24.576-14.994-47.835-31.89-69.486-50.761-62.976 71.534-103.497 162.962-110.665 263.68zM418.67 9.947c-73.947 15.726-141.093 49.883-196.681 97.207 18.213 15.506 37.815 29.403 58.368 41.911 39.57-54.784 89.6-101.303 147.237-136.85 2.926-1.829 5.851-3.584 8.777-5.339-5.851 1.024-11.849 1.829-17.701 3.072zM479.963 55.442c-55.735 30.72-103.936 73.216-142.043 123.758 44.178 18.651 92.014 30.062 142.043 33.573v-157.33zM479.963 276.699c-62.903-3.877-122.734-18.871-177.518-43.52-30.135 54.93-48.713 116.955-53.394 182.784h230.912v-139.264zM479.963 480.037h-230.912c4.242 59.685 20.261 116.151 45.714 167.205 56.832-26.697 119.296-43.154 185.198-47.25v-119.954zM479.963 663.991c-54.053 3.803-105.472 17.262-152.649 38.693 39.497 56.905 91.721 104.302 152.649 137.874v-176.567zM857.307 733.111c57.71-69.778 94.281-157.403 101.083-253.074h-122.661c-4.389 70.363-22.747 136.704-52.663 196.535 26.478 16.53 51.273 35.474 74.24 56.539zM603.721 886.491c79.433-16.603 150.894-54.638 208.896-107.301-19.090-17.335-39.57-33.061-61.44-46.958-41.033 61.294-95.086 112.859-157.989 151.552-3.291 1.975-6.583 4.023-9.947 5.998 6.875-1.097 13.751-1.902 20.48-3.291zM544.037 838.583c59.977-33.719 111.397-80.677 150.309-137.070-46.519-20.846-97.134-33.719-150.309-37.522v174.592zM544.037 599.991c64.951 4.023 126.464 19.968 182.565 46.007 25.161-50.688 40.887-106.715 45.129-165.961h-227.694v119.954zM544.037 415.963h227.694c-4.681-65.317-22.894-126.976-52.663-181.614-54.126 23.991-113.079 38.546-175.031 42.35v139.264zM544.037 212.699c49.079-3.511 96.037-14.555 139.483-32.695-37.449-49.957-84.846-91.941-139.483-122.661v155.355zM603.721 9.509c-6.729-1.39-13.678-2.194-20.48-3.291 3.365 1.975 6.656 4.023 9.947 5.998 58.149 35.84 108.617 82.798 148.261 138.167 21.358-12.8 41.691-27.136 60.562-43.227-56.027-47.689-123.685-82.066-198.29-97.646zM847.653 152.357c-22.309 19.456-46.373 36.791-71.899 52.224 34.377 63.561 55.15 135.314 59.904 211.456h122.661c-7.095-100.791-47.616-192.219-110.665-263.68z" />
<glyph unicode="&#xe917;" glyph-name="info" d="M512 960c-282.77 0-512-229.157-512-512 0-282.77 229.23-512 512-512s512 229.23 512 512c0 282.843-229.23 512-512 512zM587.995 66.194h-152.064v480.987h152.064v-480.987zM512 651.191c-49.371 0-89.307 40.009-89.307 89.381s39.936 89.234 89.307 89.234 89.381-40.009 89.381-89.381-40.009-89.234-89.381-89.234z" />
<glyph unicode="&#xe918;" glyph-name="left" d="M813.129 26.331l-421.669 421.669 421.742 421.669-90.405 90.331-512-512 512-512 90.331 90.331z" />
<glyph unicode="&#xe919;" glyph-name="logo-ads" d="M927.525 844.946h-831.049c-53.175 0-96.475-44.471-96.475-98.962v-595.968c0-54.565 43.301-98.962 96.475-98.962h830.903c53.248 0 96.549 44.398 96.549 98.962v595.968c0.073 54.491-43.227 98.962-96.402 98.962zM927.525 142.555h-831.049c-3.95 0-7.314 3.365-7.314 7.461v519.095h845.458v-519.095c0-4.169-3.145-7.461-7.095-7.461zM694.126 594.139v-131.877c-11.922 12.069-24.795 21.138-38.766 27.136-13.97 5.925-28.965 8.997-44.837 8.997-34.597 0-64.073-13.093-88.283-39.351-3.291-3.511-6.144-7.168-8.923-10.825l2.706-7.68 27.502-77.605c0.731 20.919 7.387 38.4 20.187 52.005 13.605 14.629 30.72 21.87 51.346 21.87 21.138 0 38.546-7.168 52.37-21.504s20.773-33.061 20.773-56.174c0-23.625-6.875-42.715-20.773-57.271-13.751-14.555-31.159-21.87-52.078-21.87-19.602 0-36.133 7.095-49.81 20.919l28.453-80.384c5.998-0.951 12.069-1.609 18.432-1.609 15.287 0 29.477 2.779 42.569 8.192s26.185 14.409 39.205 26.77v-28.087h66.706v368.347h-66.779zM437.175 576.073h-65.975l-129.463-359.351h88.722l73.289 216.064 73.801-216.064h86.894z" />
<glyph unicode="&#xe91a;" glyph-name="logo-analytics" d="M927.525 844.873h-831.049c-53.175 0-96.475-44.325-96.475-98.889v-596.041c0-54.565 43.301-98.816 96.475-98.816h830.903c53.248 0 96.549 44.251 96.549 98.816v596.041c0.073 54.565-43.227 98.889-96.402 98.889zM934.619 150.016c0-4.096-3.291-7.461-7.241-7.461h-830.903c-4.023 0-7.314 3.291-7.314 7.461v519.095h845.458v-519.095zM201.143 223.013c29.33 0 53.029 23.771 53.029 52.955 0 5.851-1.609 11.118-3.365 16.457l122.661 118.638c5.705-2.194 11.703-3.803 18.139-3.803 7.461 0 14.629 1.682 21.138 4.462l139.995-122.149c-1.243-4.389-2.706-8.777-2.706-13.605 0-29.184 23.771-52.955 53.102-52.955s53.029 23.771 53.029 52.955c0 6.875-1.536 13.458-4.023 19.602l155.502 167.936c4.901-1.39 9.728-2.999 15.141-2.999 29.403 0 53.102 23.771 53.102 53.029s-23.771 53.102-53.102 53.102-53.029-23.845-53.029-53.102c0-6.875 1.536-13.385 3.95-19.383l-155.502-167.936c-4.827 1.39-9.655 2.999-14.994 2.999-7.461 0-14.629-1.609-21.065-4.389l-140.069 122.075c1.243 4.462 2.779 8.777 2.779 13.605 0 29.257-23.771 53.029-53.175 53.029-29.33 0-53.029-23.845-53.029-53.029 0-5.851 1.609-11.118 3.365-16.311l-122.661-118.638c-5.778 2.121-11.703 3.657-18.213 3.657-29.403 0-53.175-23.771-53.175-53.175 0-29.257 23.771-53.029 53.175-53.029z" />
<glyph unicode="&#xe91b;" glyph-name="logo-dmp" d="M927.451 844.946h-830.903c-53.248 0-96.549-44.398-96.549-98.962v-595.968c0-54.638 43.301-98.962 96.549-98.962h830.903c53.321 0 96.549 44.325 96.549 98.962v595.895c-0.073 54.638-43.301 99.035-96.549 99.035zM934.693 150.016c0-4.096-3.291-7.534-7.314-7.534h-830.83c-4.023 0-7.314 3.365-7.314 7.534v519.095h845.531v-519.095h-0.073zM251.465 207.067c24.722 0 44.617 20.48 44.617 45.714v154.185c0 25.307-20.041 45.787-44.617 45.787s-44.617-20.48-44.617-45.787v-154.185c0-25.234 19.968-45.714 44.617-45.714zM425.033 207.067c24.722 0 44.69 20.48 44.69 45.714v305.079c0 25.234-20.041 45.714-44.69 45.714s-44.544-20.48-44.544-45.714v-305.079c0-25.234 19.968-45.714 44.544-45.714zM598.821 207.067c24.722 0 44.544 20.48 44.544 45.714v265.509c0 25.234-19.968 45.714-44.544 45.714-24.649 0-44.617-20.48-44.617-45.714v-265.509c0-25.234 19.968-45.714 44.617-45.714zM772.462 207.067c24.649 0 44.617 20.48 44.617 45.714v134.51c0 25.307-20.041 45.787-44.617 45.787-24.722 0-44.617-20.48-44.617-45.787v-134.51c-0.073-25.234 19.968-45.714 44.617-45.714z" />
<glyph unicode="&#xe91c;" glyph-name="logo-mobile" d="M960.805 715.483c-34.816 0-63.122-28.306-63.122-63.195 0-8.192 1.829-15.945 4.681-23.113l-184.759-199.753c-5.851 1.755-11.63 3.657-18.066 3.657-8.923 0-17.335-1.902-25.015-5.266l-26.697 23.406v351.086c0 64.805-51.493 117.614-114.761 117.614h-418.231c-63.342 0-114.834-52.736-114.834-117.614v-708.608c0-64.878 51.493-117.614 114.834-117.614h418.231c63.269 0 114.761 52.809 114.761 117.614v242.103c11.264-17.115 29.696-29.038 51.785-29.038 34.816 0 63.122 28.306 63.122 63.195 0 8.192-1.755 15.945-4.681 23.186l184.832 199.753c5.851-1.755 11.63-3.657 18.066-3.657 34.816-0.073 63.049 28.233 63.049 63.122s-28.233 63.122-63.195 63.122zM323.877 37.961c-27.063 0-48.933 21.943-48.933 48.933 0 27.063 21.943 48.933 48.933 48.933s48.933-21.943 48.933-48.933c0.073-27.063-21.797-48.933-48.933-48.933zM106.203 185.125v617.179c0 4.901 3.803 8.923 8.558 8.923h418.231c4.754 0 8.704-3.95 8.704-8.923v-258.633l-33.646 29.403c1.39 5.193 3.218 10.386 3.218 16.091 0 34.889-28.233 63.195-63.195 63.195-34.816 0-63.122-28.306-63.122-63.195 0-6.875 1.829-13.166 3.877-19.383l-145.627-141.019c-6.802 2.56-13.97 4.389-21.65 4.389-34.962 0-63.195-28.306-63.195-63.195s28.233-63.195 63.195-63.195c34.816 0 63.122 28.306 63.122 63.195 0 6.875-1.829 13.239-3.877 19.456l145.627 141.019c6.802-2.487 14.043-4.389 21.723-4.389 8.923 0 17.335 1.902 25.015 5.266l68.535-59.758v-286.427h-435.493z" />
<glyph unicode="&#xe91d;" glyph-name="logo-shop" d="M927.525 844.946h-831.049c-53.175 0-96.475-44.471-96.475-98.962v-595.968c0-54.565 43.301-98.962 96.475-98.962h830.903c53.248 0 96.549 44.398 96.549 98.962v595.968c0.073 54.491-43.227 98.962-96.402 98.962zM927.525 142.555h-831.049c-3.95 0-7.314 3.365-7.314 7.461v519.095h845.458v-519.095c0-4.169-3.145-7.461-7.095-7.461zM784.091 596.334h-84.553c-9.947 0-18.651-6.583-21.211-16.165l-67.291-242.176h-275.163l-11.483 50.469h161.426c12.215 0 22.089 9.874 22.089 22.089s-9.874 22.089-22.089 22.089h-171.374l-10.898 47.909h164.937c12.215 0 22.089 9.874 22.089 22.089s-9.874 22.089-22.089 22.089h-193.755c-12.142 0-22.089-9.874-22.089-22.089 0-3.877 1.243-7.314 2.999-10.533l41.326-182.053c0.146-0.731 1.097-0.878 1.317-1.536 3.072-8.485 10.971-14.629 20.553-14.629h308.882c9.947 0 18.651 6.656 21.211 16.165l67.218 242.103h67.803c12.142 0 22.089 9.874 22.089 22.089 0.073 12.215-9.801 22.089-21.943 22.089zM394.313 241.445c0-17.249-13.983-31.232-31.232-31.232s-31.232 13.983-31.232 31.232c0 17.249 13.983 31.232 31.232 31.232s31.232-13.983 31.232-31.232zM620.544 241.445c0-17.289-14.016-31.305-31.305-31.305s-31.305 14.016-31.305 31.305c0 17.289 14.016 31.305 31.305 31.305s31.305-14.016 31.305-31.305zM595.090 376.978l-6.583-2.706c-2.487-1.024-5.12 0.146-6.144 2.56l-25.015 60.635-26.697-11.045 0.731 95.744 68.023-67.365-26.697-10.971 25.015-60.635c1.024-2.414-0.219-5.193-2.633-6.217z" />
<glyph unicode="&#xe91e;" glyph-name="logo-survey" d="M927.525 844.946h-831.049c-53.175 0-96.475-44.471-96.475-98.962v-595.968c0-54.565 43.301-98.962 96.475-98.962h830.903c53.248 0 96.549 44.398 96.549 98.962v595.968c0.073 54.491-43.227 98.962-96.402 98.962zM927.525 142.555h-831.049c-3.95 0-7.314 3.365-7.314 7.461v519.095h845.458v-519.095c0-4.169-3.145-7.461-7.095-7.461zM665.893 558.592v-0.073h-307.712v-307.639h307.712v79.506l-39.863-39.863v0.146h-228.059v228.133h228.059zM805.742 566.199l-18.213 18.139c-10.094 10.021-26.331 10.021-36.425 0l-181.979-181.979-90.917 90.99c-10.094 10.094-26.405 10.094-36.425 0l-18.213-18.213c-10.094-10.021-10.094-26.331 0-36.352l127.342-127.415c0.878-0.805 1.975-1.243 2.926-1.902 10.094-7.607 24.283-7.314 33.499 1.902l218.331 218.405c10.094 10.094 10.094 26.405 0.073 36.425z" />
<glyph unicode="&#xe91f;" glyph-name="logo-video" d="M685.056 418.889l-263.607 158.062c-6.217 3.657-13.97 3.803-20.187 0.219-6.29-3.438-10.167-10.094-10.167-17.335v-316.343c0-7.241 3.877-13.897 10.167-17.408 3.072-1.755 6.437-2.633 9.874-2.633 3.584 0 7.168 0.951 10.313 2.853l263.607 158.208c6.071 3.584 9.728 10.094 9.728 17.115s-3.73 13.605-9.728 17.262zM927.525 844.946h-830.976c-53.248 0-96.549-44.471-96.549-98.962v-595.968c0-54.565 43.301-98.962 96.549-98.962h830.903c53.248 0 96.475 44.398 96.475 98.962v595.968c0.073 54.491-43.227 98.962-96.402 98.962zM927.525 142.555h-830.976c-4.023 0-7.314 3.365-7.314 7.461v519.095h845.458v-519.095c0-4.169-3.218-7.461-7.168-7.461z" />
<glyph unicode="&#xe920;" glyph-name="magic" d="M256 768.146l-128 128h-64.073v-64l128-127.927 64.073 63.927zM320 960.073h64v-127.927h-64v127.927zM576 640.073h127.927v-64h-127.927v64zM639.927 832.146v64h-63.927l-128-128 64-64 127.927 128zM0 640.073h127.927v-64h-127.927v64zM320 384.073h64v-127.927h-64v127.927zM63.927 384.073v-63.927h64l128 127.927-64 64-128-128zM1009.957 78.043l-636.050 636.197c-18.725 18.725-49.298 18.725-67.95 0l-60.197-60.197c-18.725-18.725-18.725-49.298 0-67.95l636.197-636.123c18.725-18.725 49.298-18.725 67.877 0l60.197 60.197c18.651 18.651 18.651 49.225-0.073 67.877zM480.037 416.11l-192 192 64 63.927 192-192-64-63.927z" />
<glyph unicode="&#xe921;" glyph-name="ok-circle" d="M512 960c-282.77 0-512-229.23-512-512s229.23-512 512-512 512 229.23 512 512-229.23 512-512 512zM854.821 552.887l-416.183-416.256c-17.554-17.627-44.69-18.286-63.854-3.73-1.755 1.317-3.803 2.048-5.486 3.73l-242.761 242.834c-19.237 19.163-19.237 50.176 0 69.413l34.597 34.597c19.163 19.237 50.176 19.237 69.339 0l173.349-173.349 346.843 346.917c19.237 19.163 50.249 19.163 69.413 0l34.597-34.597c19.383-19.237 19.383-50.322 0.146-69.559z" />
<glyph unicode="&#xe922;" glyph-name="order-form" d="M235.301 653.97h469.358c6.217 0 11.337 2.048 15.36 6.071s5.998 9.143 5.998 15.287v42.715c0 6.217-1.975 11.337-5.998 15.36s-9.143 5.998-15.36 5.998h-469.358c-6.217 0-11.337-1.975-15.287-5.998-4.023-4.023-6.071-9.143-6.071-15.36v-42.715c0-6.217 2.048-11.337 6.071-15.287 4.023-4.023 9.070-6.071 15.287-6.071zM919.991 941.349c-12.434 12.434-27.502 18.651-45.349 18.651h-725.358c-17.774 0-32.841-6.217-45.349-18.651-12.434-12.434-18.651-27.502-18.651-45.349v-896c0-17.774 6.217-32.914 18.651-45.349 12.507-12.434 27.575-18.651 45.349-18.651h426.715c17.774 0 37.303 4.462 58.661 13.312 21.358 8.923 38.254 19.529 50.615 32.037l208.018 207.945c12.361 12.434 23.113 29.33 31.963 50.688s13.312 40.887 13.312 58.661h0.073v597.358c0.073 17.774-6.217 32.914-18.651 45.349zM833.317 250.002l-208.677-208.677c-5.339-5.339-14.409-10.24-27.282-14.629v250.661h250.661c-4.462-12.873-9.362-22.016-14.702-27.355zM853.358 362.715h-277.358c-17.774 0-32.914-6.217-45.275-18.651-12.507-12.507-18.725-27.575-18.725-45.349v-277.358h-341.358v853.358h682.715v-512zM235.301 483.328h469.358c6.217 0 11.337 1.975 15.36 5.998s5.998 9.070 5.998 15.287v42.715c0 6.217-1.975 11.337-5.998 15.36s-9.143 5.998-15.36 5.998h-469.358c-6.217 0-11.337-1.975-15.287-5.998-4.023-4.023-6.071-9.143-6.071-15.36v-42.715c0-6.217 2.048-11.337 6.071-15.287 4.023-4.023 9.070-5.998 15.287-5.998zM235.301 313.344h151.113c6.217 0 11.337 1.975 15.36 5.998s5.998 9.143 5.998 15.287v42.715c0 6.217-1.975 11.337-5.998 15.36s-9.143 5.998-15.36 5.998h-151.113c-6.217 0-11.337-1.975-15.287-5.998-4.023-4.023-6.071-9.143-6.071-15.36v-42.715c0-6.217 2.048-11.337 6.071-15.287 4.023-4.023 9.070-5.998 15.287-5.998z" />
<glyph unicode="&#xe923;" glyph-name="play" d="M211.017 811.886l601.893-363.813-601.893-363.886v727.698zM211.017 960c-24.942 0-49.957-6.363-72.411-19.237-46.153-26.258-74.606-75.557-74.606-128.805v-727.698c0-53.467 28.453-102.619 74.533-128.951 22.455-12.873 47.47-19.31 72.485-19.31 26.185 0 52.443 7.022 75.703 21.138l601.893 363.886c44.251 26.77 71.387 74.971 71.387 127.049s-27.136 100.279-71.387 127.049l-601.893 363.739c-23.259 14.117-49.518 21.138-75.703 21.138v0z" />
<glyph unicode="&#xe924;" glyph-name="profile" d="M462.629 238.373c-90.112 0-180.297 0-270.555 0-25.161 10.898-42.569 25.893-47.397 47.47-14.336 62.976 16.603 168.814 80.311 168.229 21.87-0.366 44.617-23.186 69.486-29.33 24.649-5.998 48.055-5.851 69.413 0 29.915 8.119 42.203 30.208 69.413 29.33 80.457-2.926 113.883-198.363 29.33-215.698zM427.227 541.915c0-55.544-45.027-100.571-100.571-100.571s-100.571 45.027-100.571 100.571c0 55.544 45.027 100.571 100.571 100.571s100.571-45.027 100.571-100.571zM958.757 733.623c0.512-0.658 1.243-1.902 1.243-4.242v-562.834c0-2.56-0.951-3.95-0.658-4.242l-893.733-0.439c0 0.073-1.609 1.317-1.609 4.754v562.761c0 2.487 0.951 3.877 0.658 4.169l894.098 0.073zM960 797.623h-896c-35.401 0-64-30.647-64-68.169v-562.834c0-37.742 28.599-68.242 64-68.242h896c35.401 0 64 30.501 64 68.242v562.761c0 37.595-28.599 68.242-64 68.242v0zM599.991 610.304h295.863v-63.927h-295.863v63.927zM599.991 472.357h295.863v-64h-295.863v64zM599.991 334.336h295.863v-64h-295.863v64z" />
<glyph unicode="&#xe925;" glyph-name="question" d="M512 891.831c244.736 0 443.831-199.095 443.831-443.831s-199.095-443.831-443.831-443.831-443.831 199.095-443.831 443.831 199.095 443.831 443.831 443.831zM512 960c-282.77 0-512-229.23-512-512s229.23-512 512-512 512 229.23 512 512-229.23 512-512 512v0zM449.463 218.185h127.634v-126.098h-127.634v126.098zM727.259 562.761c-4.827-16.238-11.557-31.598-19.968-46.153-8.485-14.555-18.725-28.233-30.72-41.253s-25.161-25.454-39.497-37.376c-16.091-13.312-28.965-25.088-38.693-35.328s-16.384-19.163-19.749-26.697c-6.875-14.629-10.24-46.885-10.24-96.914h-115.273c0 68.315 6.656 116.37 19.968 144.091 13.019 26.697 37.23 54.784 72.777 84.553 15.36 12.581 27.355 23.845 35.84 33.573 8.558 9.801 15.067 18.432 19.383 26.112 4.462 7.68 7.241 14.848 8.265 21.504s1.463 13.605 1.463 20.699c0 13.385-2.267 25.673-6.875 36.864-4.535 11.337-11.264 21.065-19.675 29.33-8.485 8.192-18.651 14.629-30.208 19.163-11.63 4.754-24.576 6.949-38.985 6.949-56.027 0-90.185-39.131-102.473-117.394h-123.026c3.072 33.499 10.679 63.927 22.821 91.063s28.087 50.249 47.689 69.193 42.496 33.573 68.681 43.813c26.112 10.24 54.565 15.36 85.285 15.36 32.768 0 62.683-4.754 89.673-14.117 26.99-9.435 50.103-22.382 69.339-39.205 19.383-16.677 34.377-36.645 45.129-59.904s16.091-48.421 16.091-75.922c0.146-18.505-2.267-35.84-7.022-52.005z" />
<glyph unicode="&#xe926;" glyph-name="question-circle" d="M512 960c-282.77 0-512-229.23-512-512s229.23-512 512-512 512 229.23 512 512-229.23 512-512 512zM581.998 80.018h-137.362v135.68h137.289v-128.293l0.073-7.387zM727.259 562.761c-4.754-16.238-11.557-31.598-20.041-46.153s-18.725-28.233-30.72-41.253c-11.995-13.019-25.161-25.454-39.497-37.376-16.018-13.312-28.891-25.088-38.619-35.328s-16.384-19.163-19.749-26.697c-6.802-14.629-10.24-46.885-10.24-96.914h-115.346c0 68.315 6.656 116.37 20.041 144.091 13.019 26.624 37.23 54.784 72.777 84.48 15.36 12.581 27.429 23.845 35.913 33.573 8.558 9.728 14.994 18.432 19.456 26.112s7.241 14.848 8.265 21.504 1.463 13.605 1.463 20.699c0 13.385-2.267 25.6-6.875 36.864-4.754 11.41-11.337 21.211-19.822 29.403s-18.651 14.629-30.208 19.237c-11.557 4.681-24.649 6.875-38.985 6.875-56.027 0-90.185-39.131-102.546-117.394h-122.953c3.072 33.499 10.679 63.927 22.747 91.063s28.087 50.249 47.762 69.193 42.569 33.573 68.681 43.813c26.112 10.24 54.565 15.36 85.285 15.36 32.841 0 62.683-4.681 89.673-14.117 26.99-9.362 50.103-22.455 69.339-39.131 19.383-16.677 34.377-36.645 45.129-59.977s16.091-48.494 16.091-75.922c0.146-18.505-2.267-35.767-7.022-52.005z" />
<glyph unicode="&#xe927;" glyph-name="refresh" d="M1007.323 341.285c0-2.194-0.219-3.73-0.731-4.608-28.453-119.15-87.991-215.625-178.761-289.499-90.551-74.021-196.827-111.031-318.537-111.031-64.878 0-127.707 12.215-188.343 36.571-60.635 24.43-114.761 59.319-162.304 104.741l-86.016-86.089c-8.411-8.411-18.432-12.507-29.989-12.507s-21.577 4.096-29.989 12.507c-8.338 8.411-12.654 18.432-12.654 30.062v298.642c0 11.483 4.242 21.431 12.654 29.989 8.485 8.411 18.432 12.654 29.989 12.654h298.642c11.483 0 21.577-4.242 30.062-12.654 8.411-8.411 12.654-18.505 12.654-29.989 0-11.557-4.315-21.577-12.654-30.062l-91.429-91.429c31.525-29.257 67.291-51.931 107.374-67.95s81.627-23.991 124.709-23.991c59.465 0 115.127 14.555 166.619 43.301 51.639 28.891 92.891 68.681 124.050 119.296 4.901 7.534 16.603 33.499 35.255 78.043 3.584 10.167 10.167 15.287 20.114 15.287h127.927c5.851 0 10.752-2.121 14.994-6.437 4.169-4.096 6.29-8.997 6.363-14.848v0zM1024 874.569v-298.569c0-11.557-4.242-21.577-12.654-30.062-8.411-8.411-18.432-12.654-29.989-12.654h-298.715c-11.557 0-21.577 4.242-29.989 12.654-8.485 8.411-12.581 18.432-12.581 30.062 0.073 11.483 4.315 21.504 12.654 29.989l92.014 92.014c-65.755 60.855-143.36 91.355-232.667 91.355-59.611 0-114.981-14.482-166.693-43.301-51.346-29.038-92.745-68.754-123.831-119.296-4.827-7.534-16.603-33.573-35.328-77.97-3.511-10.24-10.167-15.36-20.041-15.36h-132.681c-5.778 0-10.679 2.121-14.921 6.363-4.315 4.096-6.437 8.997-6.437 14.848v4.681c28.891 119.077 88.942 215.552 180.005 289.573 91.063 73.947 197.632 110.958 319.927 110.958 64.805 0 127.927-12.361 189.294-37.083 61.294-24.649 115.785-59.392 163.328-104.229l86.601 85.943c8.411 8.411 18.432 12.727 30.062 12.727 11.557 0 21.504-4.242 29.989-12.727 8.338-8.338 12.581-18.359 12.654-29.915v0z" />
<glyph unicode="&#xe928;" glyph-name="retention" d="M0 670.281h178.322v-146.286h-178.322v146.286zM293.376 670.281h180.882v-146.286h-180.882v146.286zM588.215 670.281h180.59v-146.286h-180.59v146.286zM0 377.71h178.322v-146.286h-178.322v146.286zM293.376 377.71h180.882v-146.286h-180.882v146.286zM588.215 377.71h180.59v-146.286h-180.59v146.286zM0 82.286h178.322v-146.286h-178.322v146.286zM293.376 82.286h180.882v-146.286h-180.882v146.286zM873.179 670.281h150.821v-146.286h-150.821v146.286zM0 959.707h1024v-146.286h-1024v146.286z" />
<glyph unicode="&#xe929;" glyph-name="right" d="M210.871 869.669l421.669-421.669-421.742-421.669 90.405-90.331 512 512-512 512-90.331-90.331z" />
<glyph unicode="&#xe92a;" glyph-name="shapes" d="M344.722 486.693l215.259-372.809h-430.519l215.259 372.809zM344.722 636.197l-344.722-597.065h689.445l-344.722 597.065zM788.187 526.775c99.109 0 179.785-80.603 179.785-179.785s-80.603-179.785-179.785-179.785-179.785 80.677-179.785 179.785 80.677 179.785 179.785 179.785zM788.187 582.802c-130.194 0-235.813-105.545-235.813-235.813s105.618-235.813 235.813-235.813c130.267 0 235.813 105.545 235.813 235.813s-105.545 235.813-235.813 235.813v0zM653.166 819.493v-541.989h-541.915v541.989h541.915zM690.542 856.869h-616.667v-616.741h616.667v616.741z" />
<glyph unicode="&#xe92b;" glyph-name="share" d="M853.358 248.686c0 39.131-13.897 72.631-41.691 100.645s-61.221 41.984-100.352 41.984c-37.376 0-69.559-12.873-96.695-38.693l-160.695 80.018c0.878 7.095 1.317 12.215 1.317 15.287s-0.439 8.192-1.317 15.287l160.695 80.018c27.136-25.746 59.319-38.619 96.695-38.619 39.131 0 72.558 13.97 100.352 41.984s41.691 61.513 41.691 100.645c0 39.131-13.897 72.558-41.691 100.352s-61.221 41.691-100.352 41.691c-39.131 0-72.631-13.897-100.645-41.691s-41.984-61.221-41.984-100.352c0-3.072 0.439-8.192 1.317-15.287l-160.695-80.018c-27.575 25.307-59.758 38.034-96.695 38.034-39.131 0-72.558-13.897-100.352-41.691s-41.691-61.221-41.691-100.352c0-39.131 13.897-72.558 41.691-100.352s61.221-41.691 100.352-41.691c36.864 0 69.12 12.654 96.695 38.034l160.695-80.018c-0.878-7.095-1.317-12.215-1.317-15.287 0-39.131 13.97-72.558 41.984-100.352s61.513-41.691 100.645-41.691c39.131 0 72.558 13.897 100.352 41.691s41.691 61.221 41.691 100.352v0.073zM1024 768v-640c0-52.882-18.798-98.085-56.32-135.68s-82.798-56.32-135.68-56.32h-640c-52.882 0-98.085 18.798-135.68 56.32s-56.32 82.798-56.32 135.68v640c0 52.882 18.798 98.085 56.32 135.68s82.798 56.32 135.68 56.32h640c52.882 0 98.085-18.798 135.68-56.32s56.32-82.798 56.32-135.68z" />
<glyph unicode="&#xe92c;" glyph-name="squares" d="M1024 552.302c0-40.375-32.695-73.070-73.070-73.070h-877.861c-40.375 0-73.070 32.768-73.070 73.070v274.725c0 40.375 32.695 73.070 73.070 73.070h877.934c40.302 0 72.997-32.695 72.997-73.070v-274.725zM432.859 68.974c0-40.375-32.695-73.070-73.070-73.070h-286.72c-40.375 0-73.070 32.695-73.070 73.070v237.422c0 40.375 32.695 73.070 73.070 73.070h286.793c40.375 0 73.070-32.695 73.070-73.070l-0.073-237.422zM1024 68.974c0-40.375-32.695-73.070-73.070-73.070h-320.658c-40.375 0-73.070 32.695-73.070 73.070v237.422c0 40.375 32.695 73.070 73.070 73.070h320.658c40.375-0.073 73.070-32.768 73.070-73.070v-237.422z" />
<glyph unicode="&#xe92d;" glyph-name="stop" d="M108.617 960h308.151v-1024h-308.151v1024zM607.232 960h308.151v-1024h-308.151v1024z" />
<glyph unicode="&#xe92e;" glyph-name="terminal-line" d="M467.163 466.139l-296.521-136.777v72.704l213.138 87.259v1.463l-213.138 94.427v72.997l296.521-143.945zM841.070 308.443v-59.173h-314.222v80.091h314.222zM950.857 740.571v-585.143h-877.714v585.143h877.714zM1024 813.714h-1024v-731.429h1024v731.429z" />
<glyph unicode="&#xe92f;" glyph-name="th" d="M0 960h256v-256.146h-256v256.146zM384 960h256v-256.146h-256v256.146zM768 960h256v-256.146h-256v256.146zM0 576.073h256v-256.146h-256v256.146zM384 576.073h256v-256.146h-256v256.146zM768 576.073h256v-256.146h-256v256.146zM0 192.146h256v-256.146h-256v256.146zM384 192.146h256v-256.146h-256v256.146zM768 192.146h256v-256.146h-256v256.146z" />
<glyph unicode="&#xe930;" glyph-name="trash" d="M384 554.715v-384c0-6.144-1.902-11.337-5.925-15.287s-9.143-5.998-15.36-5.998h-42.789c-6.217 0-11.337 1.975-15.287 5.998s-5.998 9.143-5.998 15.287v384c0 6.217 2.048 11.337 5.998 15.36 3.95 3.877 9.143 5.998 15.287 5.998h42.715c6.217 0 11.41-2.048 15.36-5.998 4.096-4.023 5.998-9.143 5.998-15.36zM554.642 554.715v-384c0-6.144-1.975-11.337-5.998-15.287s-9.143-5.998-15.287-5.998h-42.715c-6.217 0-11.337 1.975-15.36 5.998s-5.925 9.216-5.925 15.287v384c0 6.217 1.975 11.337 5.925 15.36 4.023 3.877 9.143 5.998 15.36 5.998h42.715c6.217 0 11.337-2.048 15.287-5.998 4.023-4.023 5.998-9.143 5.998-15.36zM725.285 554.715v-384c0-6.144-1.975-11.337-5.925-15.287-4.023-4.023-9.216-5.998-15.433-5.998h-42.642c-6.217 0-11.41 1.975-15.287 5.998-4.023 3.95-5.998 9.143-5.998 15.287v384c0 6.217 1.975 11.337 5.998 15.36 3.95 3.95 9.143 5.998 15.287 5.998h42.642c6.29 0 11.41-2.048 15.433-5.998 3.95-4.023 5.925-9.143 5.925-15.36zM810.715 71.973v632.101h-597.431v-632.027c0-9.728 1.609-18.798 4.681-26.99 3.072-8.265 6.29-14.19 9.728-17.993 3.365-3.803 5.632-5.559 6.949-5.559h554.642c1.317 0 3.73 1.755 6.949 5.559 3.291 3.877 6.51 9.801 9.655 17.993 3.291 8.119 4.827 17.262 4.827 26.917v0zM362.642 789.285h298.642l-32.037 78.043c-3.072 4.023-6.802 6.437-11.337 7.387h-211.31c-4.389-0.878-8.192-3.365-11.264-7.314l-32.695-78.117zM981.358 768v-42.715c0-6.217-1.975-11.337-5.998-15.287-4.023-4.023-9.143-5.998-15.433-5.998h-63.854v-632.027c0-36.864-10.459-68.827-31.378-95.671-20.773-26.917-45.934-40.448-75.337-40.302h-554.642c-29.33 0-54.491 12.946-75.337 38.985-20.919 25.893-31.378 57.563-31.378 94.281v634.734h-63.927c-6.217 0-11.41 2.048-15.36 5.998-4.023 4.023-6.071 9.143-6.071 15.287v42.715c0 6.29 1.975 11.41 5.998 15.36 3.95 4.023 9.143 5.925 15.36 5.925h206.043l46.665 111.397c6.729 16.457 18.725 30.427 36.059 42.057 17.335 11.557 34.889 17.262 52.663 17.262h213.285c17.627 0 35.328-5.705 52.663-17.262s29.33-25.6 36.059-42.057l46.665-111.323h205.97c6.217 0 11.41-1.902 15.287-5.925 3.95-4.023 6.071-9.143 5.998-15.433v0z" />
<glyph unicode="&#xe931;" glyph-name="tree-close" d="M832 500.297h-267.703v267.703h-104.594v-267.703h-267.703v-104.594h267.703v-267.703h104.594v267.703h267.703zM0 960v-1024h1024v1024h-1024zM896 832v-768h-768v768h768z" />
<glyph unicode="&#xe932;" glyph-name="tree-open" d="M832 500.809h-640v-105.618h640zM0 960v-1024h1024v1024h-1024zM896 832v-768h-768v768h768z" />
<glyph unicode="&#xe933;" glyph-name="twinkle-star" d="M518.29 774.729l77.019-155.867 11.337-23.113 197.559-28.745-142.994-139.264 4.389-25.454 29.403-171.374-176.713 92.965-176.713-92.891 29.403 171.374 4.389 25.381-18.505 17.92-124.416 121.344 197.486 28.745 11.41 23.040 76.946 155.941zM518.29 885.467l-120.905-244.882-270.263-39.351 195.584-190.61-46.153-269.166 241.737 127.122 241.81-127.122-46.226 269.166 195.584 190.61-270.263 39.351-120.905 244.882zM464.091-29.915l54.199 222.574 54.199-222.574zM0 350.427l227.986 22.894-192-125.074zM243.2 920.722l97.426-207.36-181.833 139.41zM857.819 868.937l-163.182-160.768 71.095 217.746zM1000.887 287.013l-205.897 100.425 229.010 5.413z" />
<glyph unicode="&#xe934;" glyph-name="up" d="M90.331 146.871l421.669 421.669 421.669-421.742 90.331 90.405-512 512-512-512 90.331-90.331z" />
<glyph unicode="&#xe935;" glyph-name="upload" d="M787.675 73.874c0 10.752-3.877 19.968-11.776 27.721-7.753 7.899-16.896 11.776-27.648 11.776s-20.041-3.877-27.794-11.776c-7.753-7.753-11.776-16.896-11.776-27.721 0-10.679 4.023-20.041 11.776-27.721s17.042-11.703 27.794-11.703 19.895 3.877 27.648 11.703c7.899 7.899 11.776 17.115 11.776 27.721zM945.152 73.874c0 10.752-3.877 19.968-11.776 27.721-7.753 7.899-17.042 11.776-27.648 11.776-10.752 0-19.895-3.877-27.648-11.776-7.899-7.753-11.776-16.896-11.776-27.721 0-10.679 3.877-20.041 11.776-27.721 7.753-7.68 16.896-11.703 27.648-11.703 10.606 0 19.895 3.877 27.648 11.703 8.046 7.899 11.776 17.115 11.776 27.721zM1024 211.749v-196.754c0-16.384-5.778-30.354-17.262-41.765-11.483-11.483-25.307-17.262-41.691-17.262h-905.947c-16.53 0-30.354 5.778-41.838 17.262-11.483 11.41-17.262 25.234-17.262 41.691v196.754c0 16.53 5.778 30.427 17.262 41.838 11.483 11.483 25.307 17.262 41.838 17.262h262.656c8.704-23.040 23.113-41.838 43.447-56.686 20.261-14.629 43.081-22.162 68.023-22.162h157.477c25.015 0 47.762 7.387 68.023 22.162 20.187 14.775 34.889 33.573 43.374 56.686h262.729c16.384 0 30.354-5.778 41.838-17.262 11.483-11.41 17.335-25.307 17.335-41.765v0zM824.027 610.377c-7.095-16.384-19.163-24.576-36.352-24.576h-157.477v-275.675c0-10.606-4.023-19.968-11.776-27.794s-17.115-11.703-27.794-11.703h-157.403c-10.606 0-19.895 4.023-27.794 11.703-7.753 7.826-11.776 17.115-11.63 27.794v275.675h-157.477c-17.115 0-29.33 8.192-36.206 24.576-7.022 16.018-4.242 30.135 8.485 42.496l275.749 275.602c7.314 7.753 16.603 11.63 27.648 11.63 11.118 0 20.334-3.877 27.794-11.703l275.675-275.602c12.654-12.288 15.506-26.405 8.558-42.423v0z" />
<glyph unicode="&#xe936;" glyph-name="user-analysis" d="M466.432 542.866c0-103.494-83.604-187.392-186.734-187.392s-186.734 83.898-186.734 187.392c0 103.494 83.604 187.392 186.734 187.392s186.734-83.898 186.734-187.392zM279.698 294.693c-154.478 0-279.771-160.622-279.771-358.693h559.543c0 198.071-125.221 358.693-279.771 358.693zM584.85 287.159h-63.707l-45.129 68.754h68.169l48.859 97.646h119.223l93.55 192.658 59.685-30.866-112.055-230.546h-119.808zM804.133 380.928h73.143v-290.523h-73.143v290.523zM676.133 270.702h73.143v-180.224h-73.143v180.224zM548.133 180.517h73.143v-90.112zM768 960h-531.31c-17.701 0-32.695-6.217-45.129-18.651s-18.651-27.502-18.651-45.349v-81.115h85.065v59.758h509.586v-170.35h171.008v-683.081h-280.722v-85.211h301.934c17.701 0 32.768 6.217 45.202 18.725 12.361 12.361 18.578 27.502 18.578 45.275l-0.073 704.366h0.585l-0.585 0.585-169.179 169.765-86.309 85.285z" />
</font>
</defs>
</svg>
